<svg width="214" height="72" viewBox="0 0 214 72" fill="none" xmlns="http://www.w3.org/2000/svg">
<path d="M129.475 1.39854C128.008 1.79855 126.141 2.59855 125.341 3.26522C124.408 4.06522 122.275 3.93188 120.008 2.99855C111.341 -0.201447 97.7413 4.59855 89.3413 14.1986C84.4079 19.5319 83.8746 19.7986 80.8079 18.1986C71.4746 13.3986 56.8079 18.5986 51.8746 28.3319C49.7413 32.4652 47.3413 34.8652 43.8746 36.4652C41.0746 37.7986 37.3413 40.3319 35.6079 42.3319C31.8746 46.3319 29.3413 46.5986 22.9413 43.6652C11.3413 38.0652 -3.45872 50.0652 2.27461 60.3319C5.07461 65.2652 9.60794 67.1319 14.2746 65.5319C18.9413 63.9319 19.2079 62.1986 15.2079 61.5319C10.9413 60.9986 11.0746 55.9319 15.3413 55.3986C20.9413 54.5986 27.0746 56.4652 32.1413 60.4652C34.9413 62.7319 39.4746 65.1319 42.4079 65.9319C46.8079 67.1319 48.5413 66.8652 53.3413 64.4652C58.8079 61.9319 59.2079 61.9319 63.4746 63.9319C66.1413 65.2652 70.4079 66.0652 74.0079 65.9319C85.2079 65.2652 86.8079 65.3986 92.8079 67.7986C100.275 70.5986 110.408 69.9319 117.475 66.3319L122.675 63.6652L128.408 66.8652C132.408 69.1319 135.608 69.9319 138.541 69.3986C140.808 69.1319 144.541 69.3986 146.541 70.1986C151.875 72.0652 161.341 68.9986 167.075 63.5319C170.541 60.3319 172.275 59.5319 173.475 60.4652C177.608 63.7986 183.475 64.3319 191.875 61.9319C207.075 57.5319 212.808 52.9986 212.808 45.6652C212.808 41.3986 206.941 33.7986 203.608 33.7986C202.408 33.7986 200.275 34.5986 198.808 35.6652C196.541 37.2652 196.541 37.3986 199.875 38.3319C205.075 39.5319 204.808 44.9986 199.475 47.7986C193.208 50.9986 190.541 50.1986 183.475 42.9986C177.608 36.9986 176.808 35.3986 176.808 30.5986C176.808 24.3319 173.075 17.3986 168.541 14.9986C166.808 14.0652 162.541 13.3986 159.075 13.3986C153.341 13.5319 152.541 13.1319 150.675 9.66522C147.741 3.79855 136.808 -0.334785 129.475 1.39854ZM121.475 9.39855C121.475 11.7986 122.141 14.3319 123.075 15.2652C124.408 16.5986 124.541 15.9319 124.008 12.1986C123.341 8.33189 123.741 7.13189 126.275 5.26522C130.141 2.59855 138.408 2.46522 143.208 4.99855C147.608 7.26522 150.808 12.7319 149.608 15.7986C148.941 17.6652 149.341 17.9319 151.075 16.9986C160.141 13.1319 169.741 16.0652 173.475 23.9319C177.475 32.5986 173.741 40.8652 164.141 44.1986C160.541 45.3986 160.541 45.6652 163.208 45.6652C166.541 45.7986 174.141 41.9319 174.141 40.1986C174.141 37.5319 177.875 39.6652 182.941 45.1319C188.675 51.5319 192.808 52.5986 200.008 49.7986C204.675 48.0652 207.208 42.4652 205.075 38.9986C203.075 35.9319 204.408 35.6652 207.741 38.7319C210.941 41.5319 210.941 49.9319 207.741 52.8652C200.675 59.2652 186.808 61.1319 182.141 56.1986C179.875 53.6652 179.475 53.6652 179.475 55.5319C179.475 56.8652 180.408 58.1986 181.475 58.5986C184.408 59.7986 183.875 61.7986 180.675 61.7986C179.075 61.7986 175.741 59.6652 173.341 56.9986C169.341 52.8652 168.808 52.5986 168.808 55.1319C168.808 59.6652 166.408 62.9986 160.808 65.7986C154.008 69.2652 146.941 69.2652 143.475 65.7986C141.341 63.6652 140.808 63.5319 140.808 65.1319C140.808 67.7986 133.875 67.7986 128.675 64.9986C123.875 62.5986 120.408 55.2652 121.608 50.4652C123.341 43.7986 131.741 40.8652 136.008 45.6652C138.141 47.9319 138.141 48.3319 136.141 50.3319C133.341 53.1319 132.941 52.9986 131.608 49.3986C130.541 46.7319 130.275 46.7319 129.475 48.8652C128.008 52.5986 130.675 54.5986 135.075 52.9986C141.875 50.5986 140.275 43.5319 132.675 41.9319C128.408 41.1319 128.141 40.7319 127.475 34.0652C126.541 24.8652 122.941 21.1319 114.808 21.1319C106.808 21.1319 102.275 25.2652 104.541 30.4652C105.341 32.3319 107.208 33.7986 108.408 33.7986C110.675 33.6652 110.675 33.6652 108.541 32.3319C103.208 29.2652 107.208 23.1319 114.675 23.1319C119.741 23.1319 122.008 24.4652 124.141 28.5986C128.275 36.4652 125.075 44.5986 116.408 48.5986C109.341 51.6652 104.275 51.7986 97.3413 48.5986C83.7413 42.3319 80.8079 27.2652 90.9413 15.2652C98.2746 6.73189 108.275 2.59855 117.475 4.46522C120.941 5.13188 121.475 5.79855 121.475 9.39855ZM81.4746 21.2652C84.2746 24.1986 83.4746 27.6652 79.7413 28.1986C77.6079 28.5986 77.0746 28.1986 77.6079 26.5986C78.0079 25.3986 77.7413 24.4652 76.9413 24.4652C73.7413 24.4652 75.6079 29.5319 79.3413 30.8652C82.0079 31.7986 83.3413 33.3986 83.8746 36.1986C84.9413 41.3986 90.9413 48.3319 96.408 50.5986C101.475 52.7319 111.208 52.9986 116.008 51.1319C119.208 49.9319 119.475 50.1986 119.475 53.5319C119.475 55.5319 119.875 58.3319 120.275 59.7986C121.875 66.0652 101.475 69.6652 90.5413 65.1319C85.8746 63.1319 85.7413 62.9986 88.1413 60.4652C91.4746 56.7319 89.7413 55.5319 86.1413 59.1319C80.5413 64.7319 72.1413 65.9319 64.1413 62.1986C60.6746 60.4652 59.4746 59.1319 59.4746 56.5986C59.3413 53.3986 59.2079 53.5319 56.6746 58.0652C52.6746 65.9319 43.6079 66.5986 34.5413 59.6652C24.9413 52.3319 15.0746 50.4652 10.6746 55.2652C8.67461 57.5319 8.54128 58.3319 10.0079 60.7319C12.2746 64.4652 10.9413 65.2652 6.80794 62.5986C0.00794315 58.1986 3.47461 48.1986 13.2079 44.5986C16.1413 43.5319 18.2746 43.7986 23.6079 45.7986C27.2079 47.2652 30.5413 48.4652 30.8079 48.4652C31.0746 48.4652 34.1413 46.0652 37.4746 43.1319C44.6746 36.8652 49.4746 36.1986 50.6746 41.1319C51.2079 42.9986 52.1413 44.4652 52.9413 44.4652C53.7413 44.4652 53.7413 43.6652 52.8079 41.9319C49.4746 35.5319 52.6746 26.7319 60.2746 21.6652C65.3413 18.3319 78.2746 18.1986 81.4746 21.2652Z" fill="#555555" stroke="#555555"/>
</svg>
