<svg width="289" height="118" viewBox="0 0 289 118" fill="none" xmlns="http://www.w3.org/2000/svg">
<mask id="path-1-inside-1_321_135" fill="white">
<path d="M113.533 4.44465C102.741 9.83083 95.5462 20.0047 95.5462 29.5801C95.5462 35.7643 95.1465 36.3627 91.1494 34.9663C82.1558 31.974 69.3649 31.575 63.3692 33.9689C60.1715 35.3653 55.1751 39.1555 52.3771 42.5468C47.7803 47.933 47.1808 50.1274 47.9802 59.3038C48.5798 65.089 48.7796 69.8767 48.5798 69.8767C48.1801 69.8767 44.7825 68.4803 40.9852 66.8844C36.9881 65.2885 29.9931 63.892 25.3963 63.892C18.4013 63.892 15.8032 65.089 9.40777 71.4726C0.0144847 80.8485 -1.98409 88.0301 1.8132 98.6029C5.61049 109.575 9.60763 110.373 9.60763 99.9994C9.60763 83.6413 22.7982 79.4521 39.3863 90.6234C43.3835 93.2168 50.1786 96.4086 54.5755 97.6055C58.9723 98.8024 65.1679 102.593 68.3656 105.785C80.1572 117.953 114.932 121.943 135.917 113.565C144.111 110.373 147.309 109.974 151.106 111.57C158.501 115.16 158.901 113.964 152.106 108.577C148.508 105.785 145.51 101.795 145.51 99.6004C145.51 97.406 144.711 96.0096 143.712 96.6081C142.912 97.2065 142.513 99.9994 143.112 102.792C143.912 106.981 142.912 108.378 136.317 111.171C125.325 115.958 95.7461 115.958 83.3549 111.171C72.1629 106.782 63.7689 99.0019 68.3656 97.2065C70.1644 96.4086 71.5633 95.0122 71.5633 93.8152C71.5633 92.4188 70.3642 92.2193 67.7661 93.8152C61.1708 97.2065 55.5748 96.2091 42.7839 89.0275C29.1936 81.447 24.9966 80.4495 17.0023 82.4444C13.2051 83.4419 10.4071 86.2347 8.40849 90.8229C6.80963 94.6132 5.21077 97.805 4.6112 97.805C4.01163 97.805 3.61191 94.2142 3.61191 89.8255C3.61191 79.6516 12.8053 68.6798 22.7982 66.6849C30.9923 65.2885 47.9802 71.6721 61.9702 81.447C67.1665 85.2372 72.5626 87.8306 73.9616 87.4316C75.1608 87.0326 72.1629 84.2398 67.3663 81.447C49.5791 71.0736 44.9823 51.9228 57.5733 41.1504C71.5633 29.3806 92.9481 33.7694 96.7454 49.1299C98.1443 54.9151 93.1479 61.8972 87.3521 61.8972C82.7553 61.8972 80.3571 57.9074 83.7546 55.713C85.1536 54.9151 85.7532 53.5187 84.9538 52.7207C84.1544 51.9228 81.9559 52.7207 80.1572 54.5161C77.5591 57.1095 77.3592 58.3064 79.5576 60.7002C83.1551 65.089 92.1486 64.69 96.5455 59.9023C99.7432 56.511 100.543 56.3115 104.14 58.9049C111.335 64.0915 120.528 62.6951 126.324 55.713C129.122 52.3217 131.52 47.933 131.52 45.7386C131.52 41.1504 124.126 33.3704 120.928 34.5673C117.73 35.5648 116.531 41.9484 119.529 41.9484C120.728 41.9484 121.128 40.9509 120.528 39.9535C119.929 38.7566 120.528 37.9586 122.127 37.9586C128.722 37.9586 129.322 49.5289 122.927 55.5136C114.533 63.4931 105.939 60.1018 100.343 46.5366C94.7468 33.1709 98.5441 17.8103 109.336 10.2298C124.725 -0.742035 148.308 0.454887 161.099 13.2221C167.695 19.8052 167.895 20.6032 167.095 31.7745C166.495 40.153 164.697 45.9381 160.899 51.7233C154.704 60.8997 154.104 63.6926 158.701 59.7028C160.5 58.3064 164.297 52.1223 167.295 45.9381C172.291 35.3653 172.891 34.9663 180.885 34.3678C191.078 33.5699 196.474 36.1632 201.47 44.5417C206.267 52.1223 206.467 59.7028 202.47 65.089C198.073 70.8741 199.072 73.667 203.469 68.0813C205.667 65.4879 207.466 61.4982 207.466 59.1043C207.466 52.7207 211.264 49.9279 220.057 49.9279C225.853 49.9279 229.251 51.3243 233.648 55.713C242.042 64.291 240.643 75.8613 231.249 75.8613C226.653 75.8613 224.254 71.8716 227.452 69.8767C228.851 68.8792 229.051 67.8818 227.852 67.0839C226.852 66.4854 224.854 67.2833 223.455 68.8792C221.456 71.4726 221.656 72.6695 224.454 75.8613C228.651 80.649 233.248 80.8485 238.644 76.8588C244.24 72.6695 249.436 73.268 257.83 78.8536C266.424 84.6388 276.417 85.2372 281.813 80.4495C287.609 75.2629 286.61 82.2449 280.414 89.626C271.62 99.7999 240.842 108.178 226.453 104.189C221.456 102.792 220.257 101.196 219.258 95.2116C218.658 91.0224 217.459 87.0326 216.66 86.2347C215.86 85.4367 215.66 88.2296 216.46 92.2193C217.659 98.8024 217.259 100.398 211.863 105.785C204.468 113.166 194.675 113.764 186.681 107.58C179.286 101.795 180.086 93.0173 188.08 92.2193C193.476 91.6209 195.675 94.6132 191.078 96.4086C189.479 97.007 189.879 97.6055 192.077 97.6055C197.074 97.805 196.474 90.4239 191.278 88.828C188.48 87.8306 185.082 88.828 181.685 91.2219C178.887 93.4163 174.09 95.8101 171.092 96.6081C167.295 97.406 165.496 99.2014 165.496 101.795C165.496 103.989 166.296 105.785 167.495 105.785C168.494 105.785 168.894 104.588 168.294 102.992C166.895 99.4009 173.291 97.2065 176.688 99.9994C180.086 102.792 180.086 103.989 176.888 108.577C175.289 110.572 170.692 112.966 166.296 113.764L158.501 115.36L165.496 115.559C169.493 115.559 174.69 114.362 177.088 112.567C181.285 109.774 182.284 109.774 188.48 112.767C196.474 116.357 207.067 115.36 212.862 110.173C215.66 107.38 220.657 106.782 236.446 106.782C254.633 106.782 257.431 106.183 268.423 100.797C284.012 93.0173 290.207 84.2398 288.808 72.2705C287.609 60.8997 283.412 56.3115 283.412 66.0864C283.412 74.4649 278.615 81.846 273.219 81.846C271.021 81.846 265.425 79.6516 260.628 76.8588C256.032 74.2654 250.036 71.6721 247.438 71.2731C243.64 70.6746 242.241 69.0787 241.842 64.69C240.443 52.5212 224.654 43.3448 212.862 47.7335C208.665 49.3294 207.466 49.1299 206.467 46.1376C205.867 44.3422 202.67 39.9535 199.272 36.7617C194.076 31.7745 191.677 30.9765 182.484 30.9765C171.892 30.9765 171.692 30.7771 170.493 24.5929C168.894 16.2144 160.5 6.24004 152.106 2.84875C141.913 -1.53999 123.926 -0.742035 113.533 4.44465Z"/>
</mask>
<path d="M113.533 4.44465C102.741 9.83083 95.5462 20.0047 95.5462 29.5801C95.5462 35.7643 95.1465 36.3627 91.1494 34.9663C82.1558 31.974 69.3649 31.575 63.3692 33.9689C60.1715 35.3653 55.1751 39.1555 52.3771 42.5468C47.7803 47.933 47.1808 50.1274 47.9802 59.3038C48.5798 65.089 48.7796 69.8767 48.5798 69.8767C48.1801 69.8767 44.7825 68.4803 40.9852 66.8844C36.9881 65.2885 29.9931 63.892 25.3963 63.892C18.4013 63.892 15.8032 65.089 9.40777 71.4726C0.0144847 80.8485 -1.98409 88.0301 1.8132 98.6029C5.61049 109.575 9.60763 110.373 9.60763 99.9994C9.60763 83.6413 22.7982 79.4521 39.3863 90.6234C43.3835 93.2168 50.1786 96.4086 54.5755 97.6055C58.9723 98.8024 65.1679 102.593 68.3656 105.785C80.1572 117.953 114.932 121.943 135.917 113.565C144.111 110.373 147.309 109.974 151.106 111.57C158.501 115.16 158.901 113.964 152.106 108.577C148.508 105.785 145.51 101.795 145.51 99.6004C145.51 97.406 144.711 96.0096 143.712 96.6081C142.912 97.2065 142.513 99.9994 143.112 102.792C143.912 106.981 142.912 108.378 136.317 111.171C125.325 115.958 95.7461 115.958 83.3549 111.171C72.1629 106.782 63.7689 99.0019 68.3656 97.2065C70.1644 96.4086 71.5633 95.0122 71.5633 93.8152C71.5633 92.4188 70.3642 92.2193 67.7661 93.8152C61.1708 97.2065 55.5748 96.2091 42.7839 89.0275C29.1936 81.447 24.9966 80.4495 17.0023 82.4444C13.2051 83.4419 10.4071 86.2347 8.40849 90.8229C6.80963 94.6132 5.21077 97.805 4.6112 97.805C4.01163 97.805 3.61191 94.2142 3.61191 89.8255C3.61191 79.6516 12.8053 68.6798 22.7982 66.6849C30.9923 65.2885 47.9802 71.6721 61.9702 81.447C67.1665 85.2372 72.5626 87.8306 73.9616 87.4316C75.1608 87.0326 72.1629 84.2398 67.3663 81.447C49.5791 71.0736 44.9823 51.9228 57.5733 41.1504C71.5633 29.3806 92.9481 33.7694 96.7454 49.1299C98.1443 54.9151 93.1479 61.8972 87.3521 61.8972C82.7553 61.8972 80.3571 57.9074 83.7546 55.713C85.1536 54.9151 85.7532 53.5187 84.9538 52.7207C84.1544 51.9228 81.9559 52.7207 80.1572 54.5161C77.5591 57.1095 77.3592 58.3064 79.5576 60.7002C83.1551 65.089 92.1486 64.69 96.5455 59.9023C99.7432 56.511 100.543 56.3115 104.14 58.9049C111.335 64.0915 120.528 62.6951 126.324 55.713C129.122 52.3217 131.52 47.933 131.52 45.7386C131.52 41.1504 124.126 33.3704 120.928 34.5673C117.73 35.5648 116.531 41.9484 119.529 41.9484C120.728 41.9484 121.128 40.9509 120.528 39.9535C119.929 38.7566 120.528 37.9586 122.127 37.9586C128.722 37.9586 129.322 49.5289 122.927 55.5136C114.533 63.4931 105.939 60.1018 100.343 46.5366C94.7468 33.1709 98.5441 17.8103 109.336 10.2298C124.725 -0.742035 148.308 0.454887 161.099 13.2221C167.695 19.8052 167.895 20.6032 167.095 31.7745C166.495 40.153 164.697 45.9381 160.899 51.7233C154.704 60.8997 154.104 63.6926 158.701 59.7028C160.5 58.3064 164.297 52.1223 167.295 45.9381C172.291 35.3653 172.891 34.9663 180.885 34.3678C191.078 33.5699 196.474 36.1632 201.47 44.5417C206.267 52.1223 206.467 59.7028 202.47 65.089C198.073 70.8741 199.072 73.667 203.469 68.0813C205.667 65.4879 207.466 61.4982 207.466 59.1043C207.466 52.7207 211.264 49.9279 220.057 49.9279C225.853 49.9279 229.251 51.3243 233.648 55.713C242.042 64.291 240.643 75.8613 231.249 75.8613C226.653 75.8613 224.254 71.8716 227.452 69.8767C228.851 68.8792 229.051 67.8818 227.852 67.0839C226.852 66.4854 224.854 67.2833 223.455 68.8792C221.456 71.4726 221.656 72.6695 224.454 75.8613C228.651 80.649 233.248 80.8485 238.644 76.8588C244.24 72.6695 249.436 73.268 257.83 78.8536C266.424 84.6388 276.417 85.2372 281.813 80.4495C287.609 75.2629 286.61 82.2449 280.414 89.626C271.62 99.7999 240.842 108.178 226.453 104.189C221.456 102.792 220.257 101.196 219.258 95.2116C218.658 91.0224 217.459 87.0326 216.66 86.2347C215.86 85.4367 215.66 88.2296 216.46 92.2193C217.659 98.8024 217.259 100.398 211.863 105.785C204.468 113.166 194.675 113.764 186.681 107.58C179.286 101.795 180.086 93.0173 188.08 92.2193C193.476 91.6209 195.675 94.6132 191.078 96.4086C189.479 97.007 189.879 97.6055 192.077 97.6055C197.074 97.805 196.474 90.4239 191.278 88.828C188.48 87.8306 185.082 88.828 181.685 91.2219C178.887 93.4163 174.09 95.8101 171.092 96.6081C167.295 97.406 165.496 99.2014 165.496 101.795C165.496 103.989 166.296 105.785 167.495 105.785C168.494 105.785 168.894 104.588 168.294 102.992C166.895 99.4009 173.291 97.2065 176.688 99.9994C180.086 102.792 180.086 103.989 176.888 108.577C175.289 110.572 170.692 112.966 166.296 113.764L158.501 115.36L165.496 115.559C169.493 115.559 174.69 114.362 177.088 112.567C181.285 109.774 182.284 109.774 188.48 112.767C196.474 116.357 207.067 115.36 212.862 110.173C215.66 107.38 220.657 106.782 236.446 106.782C254.633 106.782 257.431 106.183 268.423 100.797C284.012 93.0173 290.207 84.2398 288.808 72.2705C287.609 60.8997 283.412 56.3115 283.412 66.0864C283.412 74.4649 278.615 81.846 273.219 81.846C271.021 81.846 265.425 79.6516 260.628 76.8588C256.032 74.2654 250.036 71.6721 247.438 71.2731C243.64 70.6746 242.241 69.0787 241.842 64.69C240.443 52.5212 224.654 43.3448 212.862 47.7335C208.665 49.3294 207.466 49.1299 206.467 46.1376C205.867 44.3422 202.67 39.9535 199.272 36.7617C194.076 31.7745 191.677 30.9765 182.484 30.9765C171.892 30.9765 171.692 30.7771 170.493 24.5929C168.894 16.2144 160.5 6.24004 152.106 2.84875C141.913 -1.53999 123.926 -0.742035 113.533 4.44465Z" fill="#555555" stroke="#555555" stroke-width="2" mask="url(#path-1-inside-1_321_135)"/>
</svg>
