<svg width="295" height="129" viewBox="0 0 295 129" fill="none" xmlns="http://www.w3.org/2000/svg">
<path d="M129.182 3.03523C113.96 8.32928 101.386 23.7703 101.386 37.0054V43.623L89.4737 42.2995C78.2231 41.1965 76.8995 41.4171 70.7226 47.5935C67.193 51.3435 63.4428 57.0787 62.5604 60.608C61.678 64.1374 58.5896 69.6521 55.5012 72.9608C50.4274 78.4755 48.2213 79.1372 36.5295 79.1372C21.308 79.1372 6.08656 85.093 2.33635 91.9312C-4.72288 105.166 5.20416 125.46 18.8814 125.46C22.1904 125.46 22.1904 124.798 17.999 120.387C15.3518 117.519 13.1458 113.328 13.1458 110.681C13.1458 106.49 19.3226 98.9899 22.8522 98.9899C23.7346 98.9899 32.5587 102.96 42.4857 108.034C57.7072 115.534 61.8986 116.637 69.6196 115.534C75.5759 114.651 80.6497 115.313 85.0617 117.74C92.7827 121.71 107.784 122.151 115.725 118.401C120.137 116.416 122.564 116.637 126.976 118.843C130.064 120.607 135.138 121.71 138.227 121.49C141.094 121.269 145.727 122.593 148.374 124.357C155.654 129.431 158.301 128.328 152.566 122.593C149.698 119.946 146.168 115.754 144.403 113.328C141.315 108.916 141.315 108.916 141.094 113.769C141.094 117.74 139.771 118.843 135.579 118.843C128.52 118.843 126.535 113.769 130.947 107.372C135.359 101.196 135.579 89.2842 131.388 85.9754C126.535 82.0048 115.946 83.7695 115.063 88.843C113.96 94.3576 118.152 98.5487 121.681 95.0194C123.667 93.0341 123.446 92.3724 120.137 92.3724C116.166 92.3724 116.166 92.1518 119.475 88.843C124.108 83.9901 129.623 86.196 131.388 93.4753C135.8 110.902 101.386 125.681 84.8411 113.549C81.0909 110.902 80.8703 110.019 83.7381 106.49C86.3853 103.181 85.7235 103.402 79.1055 107.372C67.8548 114.21 58.8102 113.549 42.7063 104.505C35.2059 100.313 26.3818 96.7841 23.514 96.7841C17.5578 96.7841 8.73378 105.828 8.73378 111.563C8.73378 113.328 7.85137 113.99 6.52777 113.328C4.10116 111.784 3.43935 99.2105 5.64536 93.4753C8.07197 87.5195 19.102 83.3284 35.4265 82.2254C53.0746 81.1225 60.1338 77.3725 63.884 67.4462C68.9578 53.3287 71.8256 49.3582 79.7673 46.4906C86.3853 43.8436 88.5913 43.8436 93.8857 46.4906C103.151 50.9023 105.357 55.9758 100.504 61.2698C95.6505 66.7844 90.3561 67.2256 90.3561 62.5933C90.3561 60.8286 89.2531 59.2845 87.9295 59.2845C86.6059 59.2845 85.9441 61.0492 86.3853 63.0345C87.2677 68.5491 96.3123 69.2109 101.607 64.5786C105.798 60.8286 106.019 60.8286 109.328 65.4609C123.226 85.3136 156.316 77.5931 156.536 54.4317C156.536 45.3876 148.815 37.226 139.991 37.226C134.256 37.226 128.961 42.52 131.167 46.0494C133.373 49.5788 136.682 48.6964 135.359 44.9465C134.256 42.52 135.579 41.6377 140.874 41.6377C156.978 41.6377 157.86 63.9168 141.756 71.4167C130.505 76.7108 118.814 73.1814 111.313 61.9316C97.636 40.7554 103.372 20.2409 126.535 7.88811C139.991 0.829376 164.919 1.04996 178.596 8.54987C192.053 16.0498 198.451 26.1967 198.451 40.3142C198.451 48.4758 199.112 50.6817 200.657 48.2553C201.76 46.4906 202.863 42.7406 202.863 39.873C202.863 33.9172 210.142 30.6084 222.496 30.6084C232.864 30.6084 244.997 38.3289 247.865 46.7112C249.851 51.7846 249.189 53.5493 243.012 59.9463C233.526 69.6521 233.967 72.5197 243.674 63.9168C257.13 52.2258 276.323 55.7552 286.912 71.6373C297.721 88.1812 286.912 109.799 271.028 103.402C263.307 100.093 261.542 91.0488 269.043 93.0341C274.337 94.3576 274.999 90.6077 269.925 88.6224C268.16 87.9606 264.851 89.0636 262.866 91.0488C259.336 94.5782 259.336 95.24 263.087 101.637C266.837 108.255 266.837 108.475 262.204 113.769C252.057 124.357 227.57 125.901 220.069 116.416C214.554 109.799 214.775 101.196 220.511 101.196C223.378 101.196 224.481 102.299 223.599 104.505C222.055 108.255 226.026 109.137 228.232 105.607C230.217 102.299 225.143 96.7841 220.29 96.7841C218.084 96.7841 214.775 99.6517 213.01 102.96C209.26 110.46 192.936 125.46 188.965 125.46C187.421 125.46 184.112 124.137 181.906 122.372C178.155 119.725 177.935 118.843 180.803 115.313C183.67 112.004 183.67 111.563 180.803 112.666C179.038 113.107 177.052 116.637 176.39 120.166C175.508 125.681 173.964 126.784 166.463 128.107C160.507 129.21 162.272 129.21 171.758 128.548C179.479 128.107 188.082 127.666 190.73 127.666C193.597 127.666 199.112 124.137 203.524 119.725L211.245 111.563L216.54 117.519C226.467 128.99 250.512 127.887 264.41 115.313C269.263 111.122 275.22 107.813 278.308 107.813C285.147 107.813 292.868 99.8723 294.633 90.8283C297.942 74.0638 278.308 52.667 259.557 52.667C253.16 52.667 251.395 51.7846 251.395 48.4758C251.395 41.8583 243.233 33.476 232.644 29.2849C223.378 25.7555 218.966 25.9761 205.73 29.7261C201.98 30.829 200.657 30.1673 200.657 27.5202C200.657 21.1232 185.435 6.78519 174.846 3.25582C162.272 -0.935303 140.874 -1.15588 129.182 3.03523Z" fill="#555555"/>
</svg>
