<svg width="216" height="94" viewBox="0 0 216 94" fill="none" xmlns="http://www.w3.org/2000/svg">
<path d="M82.5307 17.3701C83.7171 18.4098 84.6294 19.2181 85.2788 19.8997C85.9241 20.5771 86.3651 21.184 86.5383 21.8316C86.7185 22.5054 86.5891 23.1419 86.2806 23.8264C85.9795 24.4943 85.4796 25.2669 84.8536 26.2259L84.8511 26.2296C83.3258 28.5211 81.5775 29.8917 79.7484 30.1233C77.8882 30.3589 76.1287 29.3977 74.6497 27.4486L74.6478 27.4461C74.1986 26.8462 73.867 26.4165 73.6165 26.1372C73.5964 26.1148 73.5773 26.0938 73.559 26.0742C73.521 26.3273 73.4921 26.6828 73.4621 27.161C73.467 27.7494 73.7689 28.4588 74.311 29.1768C74.8451 29.8843 75.5735 30.5475 76.3381 31.0385C77.63 31.6828 78.4752 31.8853 79.3554 31.7279C80.2777 31.5629 81.3113 30.9931 82.9507 29.8742C85.3173 28.0751 86.6412 25.8406 86.9188 23.6513C87.1955 21.4691 86.4413 19.2762 84.5419 17.5148C82.5274 15.6466 81.4091 13.9971 81.6294 12.2542C81.7387 11.3891 82.1719 10.569 82.8667 9.75224C83.5601 8.9371 84.5366 8.09882 85.7795 7.19349L85.7821 7.19159C92.7475 2.18703 103.335 0.205399 110.8 2.49216C113.973 3.40035 116.888 4.76349 119.02 6.19376C120.086 6.90853 120.972 7.65036 121.597 8.3735C122.21 9.08224 122.631 9.84126 122.631 10.5822C122.631 10.9564 122.406 11.308 122.173 11.5875C121.922 11.8902 121.571 12.2128 121.157 12.541C120.325 13.1996 119.18 13.9245 117.896 14.6054C115.484 15.8841 112.935 18.8115 110.981 22.2277C109.029 25.6397 107.732 29.4316 107.732 32.3693C107.732 35.5267 109.212 39.7274 111.409 43.5549C113.607 47.384 116.457 50.7269 119.1 52.2295L119.103 52.2309C124.856 55.5437 131.451 54.2568 135.863 50.7434C140.272 47.2326 142.403 41.5945 139.426 36.1954C138.552 34.6638 137.795 33.7983 136.738 33.2855C136.063 32.9577 135.238 32.7606 134.134 32.6588C135.372 33.0046 136.388 33.6183 137.168 34.5238C138.454 36.0164 139.021 38.2104 139.021 41.0245C139.021 45.6534 136.159 49.3516 132.244 51.3023C128.331 53.2524 123.318 53.4857 118.918 51.1665L118.914 51.1643C114.862 48.9791 111.976 44.0055 110.675 38.5286C109.371 33.0416 109.622 26.9066 112.001 22.2939C113.563 19.167 116.956 16.4553 121.179 14.5294C125.416 12.5972 130.552 11.4252 135.69 11.4252C145.812 11.4252 155.215 15.8849 161.043 21.8732C166.854 27.8448 169.228 35.4989 164.86 41.7539C164.279 42.6271 163.902 43.3961 163.755 43.9203C163.718 44.0499 163.701 44.1486 163.693 44.2203C163.767 44.1928 163.869 44.1454 163.999 44.0664C164.239 43.9207 164.525 43.7008 164.835 43.4164C165.456 42.8485 166.137 42.059 166.712 41.1951L166.715 41.1908L168.95 37.9078L169.263 37.4491L169.686 37.8073L174.447 41.8299C177.09 43.8871 181.941 46.5317 185.284 47.4051L185.287 47.406C188.27 48.2074 193.053 48.5079 197.954 48.3405C202.847 48.1734 207.784 47.5427 211.075 46.5186L214.495 45.3276L215.5 44.9773C215.5 44.953 215.5 44.9287 215.5 44.9044C215.5 43.5586 215.471 42.5659 215.375 41.8827C215.326 41.5405 215.264 41.3074 215.198 41.1574C215.165 41.0847 215.136 41.0428 215.117 41.0202C215.107 41.0093 215.1 41.0036 215.097 41.0008C215.093 40.9981 215.092 40.9975 215.092 40.9974C215.092 40.9974 215.09 40.9969 215.087 40.9963C215.084 40.9957 215.076 40.9947 215.063 40.9952C215.037 40.9962 214.99 41.0032 214.918 41.0292C214.769 41.0828 214.563 41.1984 214.286 41.4032C213.733 41.8119 213.003 42.4957 212.033 43.4669C210.371 45.1316 207.767 46.2514 204.725 46.9019C201.672 47.5547 198.123 47.7466 194.512 47.5111C187.31 47.0416 179.736 44.8626 175.299 41.1077L175.299 41.1078L175.29 41.1007C172.688 38.8013 169.076 33.5127 167.122 29.2966L167.118 29.2881C164.322 22.9494 160.474 18.3365 155.288 15.246C150.096 12.1515 143.521 10.5585 135.232 10.3359C131.28 10.2612 128.585 10.0374 126.513 9.49925C124.415 8.9545 122.967 8.09112 121.5 6.77624L121.494 6.77125C114.069 -0.0817947 100.443 -1.5755 90.1717 3.56792L90.1717 3.56799L82.1999 17.7451M82.5307 17.3701C82.5303 17.3698 82.5299 17.3694 82.5294 17.369L82.1999 17.7451M82.5307 17.3701C82.5309 17.3703 82.5312 17.3706 82.5315 17.3708L82.1999 17.7451M82.5307 17.3701C80.5741 15.6368 78.9561 14.5095 77.1224 13.8257C75.29 13.1424 73.2839 12.9175 70.5781 12.9175C64.3919 12.9175 59.6264 14.4667 56.409 17.6113C53.1896 20.758 51.6023 25.4217 51.6023 31.4739C51.6023 33.7506 51.3453 35.4316 50.7281 36.9152C50.1109 38.3987 49.1167 39.7256 47.5766 41.2681C45.8202 43.0272 44.5094 44.0124 42.3431 44.6882C40.1331 45.3776 37.0244 45.7481 31.6492 46.1967M82.1999 17.7451C78.326 14.3129 75.942 13.4175 70.5781 13.4175C58.3602 13.4175 52.1023 19.5358 52.1023 31.4739C52.1023 36.1 51.0593 38.4876 47.9304 41.6214C44.3544 45.2028 42.4175 45.7997 31.6896 46.6951M31.6492 46.1967C31.6497 46.1967 31.6503 46.1966 31.6508 46.1966L31.6896 46.6951M31.6492 46.1967C24.9321 46.72 20.0312 47.545 16.1997 49.0267C12.3483 50.5162 9.594 52.6627 7.15788 55.7887M31.6492 46.1967C31.6488 46.1968 31.6484 46.1968 31.648 46.1968L31.6896 46.6951M31.6896 46.6951L7.15788 55.7887M7.15788 55.7887C7.15811 55.7884 7.15835 55.7881 7.15858 55.7878L7.55197 56.0964L7.15758 55.789C7.15768 55.7889 7.15778 55.7888 7.15788 55.7887ZM7.15788 55.7887C3.805 60.063 2.06299 65.6546 1.93032 70.9693C1.79785 76.2762 3.27013 81.3879 6.44893 84.6492L6.45528 84.6558L6.46188 84.6621C7.25963 85.423 7.96272 85.956 8.54648 86.247C8.83757 86.3921 9.12737 86.4915 9.40245 86.5118C9.68599 86.5327 9.9828 86.4694 10.2175 86.2548C10.4444 86.0473 10.5424 85.7625 10.5734 85.4853C10.6045 85.2072 10.5744 84.891 10.5016 84.552C10.3557 83.8728 10.0173 83.0074 9.48597 81.9812L9.48182 81.9732L9.47739 81.9653C9.05356 81.2143 8.85371 80.167 8.87834 78.9311C8.90284 77.7021 9.14868 76.3268 9.5753 74.9541C10.4334 72.193 11.9911 69.5389 13.817 68.1322L13.823 68.1276L13.8288 68.1228C15.4039 66.8321 17.5327 65.8551 19.258 65.4231C20.1267 65.2056 20.8439 65.1389 21.3171 65.2089C21.5536 65.2438 21.6817 65.3062 21.7416 65.3555C21.7819 65.3887 21.8028 65.4212 21.8028 65.4977C21.8028 65.7396 21.6606 66.0149 21.3379 66.25C21.0184 66.4827 20.564 66.6392 20.0678 66.6392C19.03 66.6392 17.8785 67.1296 16.7708 67.8595C15.6509 68.5975 14.5194 69.6178 13.5094 70.7629C12.4989 71.9086 11.5984 73.1926 10.948 74.4664C10.3014 75.7328 9.88293 77.0266 9.88293 78.182C9.88293 79.4273 10.3768 80.7878 11.2063 82.1208C12.0393 83.4596 13.2311 84.8039 14.6795 86.0255C16.0781 87.2051 16.9022 88.1702 17.2665 88.8833C17.4482 89.2389 17.4933 89.4891 17.4791 89.6493C17.467 89.7855 17.4116 89.8841 17.2872 89.9704C17.1441 90.0696 16.894 90.1598 16.4966 90.1931C16.1047 90.226 15.6051 90.2006 14.998 90.1022C13.7841 89.9055 12.1945 89.4264 10.28 88.6151L10.2756 88.6133L10.2756 88.6133C4.17887 86.099 0.856528 79.7876 0.527045 72.6561C0.197863 65.5312 2.87057 57.6951 8.63784 52.2838M7.15788 55.7887L6.80698 84.3003C9.93594 87.2848 11.1279 86.2402 9.04195 82.2111C7.10498 78.7789 9.63794 70.7206 13.5119 67.7361C16.7898 65.05 22.3028 63.7069 22.3028 65.4977C22.3028 66.393 21.2598 67.1392 20.0678 67.1392C16.4918 67.1392 10.3829 74.0036 10.3829 78.182C10.3829 80.4204 12.1709 83.2557 15.0019 85.6433C20.6638 90.4186 17.8328 92.3585 10.0849 89.0755C-2.57989 83.8526 -3.47387 62.9608 8.29696 51.918M8.63784 52.2838C8.63748 52.2842 8.63712 52.2845 8.63676 52.2848L8.29696 51.918M8.63784 52.2838C8.63824 52.2834 8.63865 52.2831 8.63906 52.2827L8.29696 51.918M8.63784 52.2838C11.5771 49.561 14.3076 47.8164 17.7399 46.7433C21.1872 45.6655 25.3734 45.2551 31.2426 45.2551C35.8454 45.2551 38.5676 45.1471 40.6815 44.5061C42.8293 43.8549 44.3162 42.6648 46.4826 40.6448C46.4829 40.6445 46.4831 40.6443 46.4834 40.644L46.1424 40.2783C41.8215 44.3075 40.4805 44.7551 31.2426 44.7551C19.4718 44.7551 14.2569 46.3966 8.29696 51.918M169.364 38.1892L169.041 38.5711L169.081 38.6047L169.364 38.1892ZM169.364 38.1892L169.777 38.4705L169.748 38.5136L169.364 38.1892ZM214.659 45.7997L214.198 45.6059L214.024 46.0211L214.659 45.7997ZM214.659 45.7997L214.824 46.2719L214.398 46.42L214.659 45.7997ZM73.2979 25.8385C73.2979 25.8386 73.2991 25.8392 73.3014 25.8402C73.2989 25.8388 73.2978 25.8383 73.2979 25.8385ZM128.415 32.9622C128.514 32.8759 128.624 32.8015 128.744 32.7371C128.219 32.81 127.785 32.907 127.436 33.0283C126.999 33.1796 126.733 33.3556 126.577 33.5335C126.431 33.7 126.356 33.8969 126.356 34.16C126.356 35.1199 127.092 36.1348 127.961 36.5231C128.161 36.5767 128.287 36.5759 128.355 36.5618C128.408 36.5506 128.413 36.5364 128.419 36.5267C128.435 36.4986 128.468 36.4078 128.448 36.2047C128.429 36.0061 128.361 35.7374 128.224 35.3925C128.027 34.9195 127.906 34.4726 127.915 34.0647C127.925 33.6314 128.084 33.2506 128.415 32.9622ZM203.71 63.8877C210.952 59.0645 215.424 52.41 215.499 45.0918L215.12 45.9935L212.74 51.6543C212.739 51.6559 212.739 51.6576 212.738 51.6592C211.173 55.6146 209.989 58.0456 208.073 60.0427C206.164 62.0319 203.558 63.5576 199.244 65.7924L199.238 65.7955C196.089 67.3726 193.623 68.3633 190.695 68.9537C187.776 69.5421 184.421 69.7283 179.499 69.7283C176.781 69.7656 174.668 69.7751 173.037 69.7281C171.412 69.6814 170.232 69.5782 169.397 69.3789C168.567 69.1811 167.963 68.862 167.656 68.2893C167.363 67.7423 167.418 67.0923 167.53 66.4555L167.53 66.4555L167.532 66.4443C167.696 65.6248 168.209 64.4152 168.863 63.1426C169.524 61.856 170.355 60.4574 171.186 59.2456L171.191 59.2389L171.196 59.2323C173.246 56.4452 173.716 54.5489 173.075 52.8593C172.869 52.4186 172.707 52.1115 172.579 51.916C172.531 52.0298 172.479 52.1783 172.422 52.3672C172.28 52.8405 172.126 53.5107 171.94 54.4036C171.476 56.8011 170.271 58.7242 169.091 59.547C168.516 59.9481 167.78 60.1883 167.155 59.7826C166.564 59.3995 166.331 58.5915 166.331 57.5886C166.331 56.9652 166.226 56.4401 166.074 56.0903C166.004 55.929 165.932 55.8243 165.874 55.7633C165.855 55.8052 165.835 55.8594 165.813 55.9282C165.714 56.2478 165.633 56.7448 165.578 57.4063C165.469 58.7163 165.468 60.5528 165.542 62.6308C165.837 65.8901 165.89 67.9327 165.33 69.5762C164.76 71.2465 163.581 72.4419 161.648 74.0811C159.23 76.2734 156.802 77.608 154.92 77.9287C153.98 78.089 153.103 78.007 152.446 77.5602C151.765 77.0973 151.431 76.3209 151.431 75.3466C151.431 74.6719 151.076 73.7553 150.411 72.7154C149.9 71.9168 149.232 71.0836 148.477 70.2875C149.182 71.2668 149.451 72.4084 149.451 73.8544C149.451 76.7349 148.328 79.8867 146.615 82.5558C144.904 85.2211 142.562 87.4711 140.054 88.4927C127.615 93.7455 118.428 93.3707 111.957 87.3525C110.93 86.3978 109.909 85.595 109.117 85.072C108.922 84.9438 108.746 84.8351 108.589 84.746C108.623 84.7963 108.66 84.8491 108.699 84.9041C109.102 85.4657 109.747 86.1855 110.546 86.9136C111.598 87.8544 112.386 88.6771 112.882 89.3888C113.362 90.0767 113.655 90.7827 113.467 91.4338C113.271 92.1127 112.632 92.4867 111.875 92.6979C111.099 92.9146 110.039 93.0077 108.722 93.0077C105.729 93.0077 101.974 92.0523 98.8445 90.7496C97.2763 90.0967 95.8457 89.3487 94.7328 88.5742C93.642 87.8152 92.7755 86.976 92.4585 86.1144L92.4558 86.107L92.4533 86.0996C92.1732 85.258 92.3763 84.1115 92.7935 82.9719C93.2214 81.8031 93.9157 80.5309 94.7593 79.3788L94.7655 79.3704L94.7721 79.3622C97.6579 75.7494 98.2401 71.6749 97.1311 68.5369C96.0276 65.4142 93.2351 63.1624 89.2028 63.1624C86.0151 63.1624 83.7478 64.7172 82.818 66.6473C81.8981 68.5569 82.2407 70.9206 84.4525 72.7204L84.4525 72.7203L84.4601 72.7268C84.882 73.0843 85.1835 73.3109 85.392 73.4296C85.392 73.4292 85.392 73.4289 85.392 73.4285C85.3972 73.2836 85.3871 73.0869 85.3581 72.8281C85.3002 72.3105 85.1737 71.6016 84.9875 70.6693L84.9864 70.6634C84.5239 68.1931 84.9585 66.1877 86.2423 65.0327C87.536 63.8688 89.5118 63.7269 91.7643 64.5826L91.765 64.5828C93.4234 65.2156 94.6515 66.235 95.4361 67.5225C96.2189 68.8074 96.5424 70.3298 96.444 71.9448C96.2479 75.1663 94.3766 78.7871 91.0294 81.8347L91.0275 81.8363C88.022 84.5455 85.5405 86.2372 82.4859 87.2377C79.4452 88.2336 75.8769 88.5309 70.7271 88.5309C64.8907 88.5309 60.9706 88.1197 56.6286 86.1742C52.315 84.2415 47.6113 80.8054 40.1679 74.8415L40.1678 74.8415L40.162 74.8367C37.1985 72.388 34.1254 70.2006 31.5761 68.6279C30.3009 67.8413 29.164 67.213 28.2423 66.7832C27.7813 66.5683 27.3811 66.4063 27.049 66.299C26.7094 66.1892 26.4719 66.1469 26.3257 66.1469C26.0192 66.1469 25.7702 66.1583 25.5758 66.1809C25.5311 66.1861 25.491 66.1917 25.455 66.1975C25.6416 66.383 25.9731 66.6441 26.4979 66.9934C27.1554 67.4308 28.0647 67.974 29.2531 68.6435L29.2531 68.6434L29.2623 68.6488C32.5673 70.6047 39.5904 75.5447 44.9664 79.882L44.9677 79.883C51.6353 85.2995 57.7863 88.6094 63.9436 89.9676C70.0936 91.3241 76.2921 90.7428 83.0739 88.3065C85.9517 87.2718 87.6736 86.7327 89.3439 86.9571C91.0075 87.1806 92.5623 88.1554 95.1396 89.8517L95.1484 89.8574L95.1568 89.8635C97.5045 91.5535 99.148 92.4431 101.917 92.9293C104.733 93.4238 108.707 93.5 115.724 93.5C124.441 93.5 129.999 93.1248 134.447 91.7864C138.871 90.4553 142.233 88.1599 146.527 84.2299L146.527 84.2297L146.538 84.2205C148.198 82.7846 150.12 81.3885 151.93 80.2744C153.728 79.1671 155.458 78.313 156.726 77.9954L156.738 77.9925L156.75 77.9901C157.798 77.7801 159.089 77.2459 160.312 76.5693C161.535 75.893 162.647 75.0987 163.348 74.3965C165.744 71.9964 168.626 71.4146 175.332 71.5637C186.343 71.7113 196.41 68.7495 203.71 63.8877ZM144.392 67.4309C145.421 67.9034 146.281 68.3623 146.982 68.857C146.206 68.1848 145.403 67.5903 144.634 67.1297C143.578 66.4973 142.65 66.1543 141.97 66.147C141.955 66.1485 141.94 66.15 141.925 66.1516C142.086 66.2634 142.303 66.3966 142.586 66.5513C143.048 66.8038 143.649 67.0963 144.388 67.4294L144.392 67.4309ZM107.943 84.4595C107.943 84.4597 107.946 84.4602 107.952 84.4602C107.945 84.4594 107.942 84.4593 107.943 84.4595ZM25.2916 65.9971C25.2915 65.9971 25.292 65.9984 25.2933 66.0011C25.2924 65.9985 25.2917 65.9971 25.2916 65.9971Z" fill="#555555" stroke="#555555"/>
</svg>
