<svg width="152" height="80" viewBox="0 0 152 80" fill="none" xmlns="http://www.w3.org/2000/svg">
<path d="M54.7406 63.1764C53.249 61.6905 52.2049 59.4615 52.2049 58.2728C52.2049 57.084 53.5473 57.9756 55.3372 60.2045M54.7406 63.1764L67.7173 48.6141C64.4358 51.2888 63.5409 53.3691 63.5409 58.2728C63.3917 65.7025 59.9611 66.4455 55.3372 60.2045M54.7406 63.1764C56.083 64.6624 56.8288 66.2969 56.3813 66.7427L54.7406 63.1764ZM55.3372 60.2045L54.9474 60.5176C54.9454 60.5151 54.9433 60.5126 54.9413 60.5101M55.3372 60.2045L54.9355 60.5022C54.9374 60.5048 54.9394 60.5074 54.9413 60.5101M54.9413 60.5101C54.0549 59.4071 53.3171 58.6853 52.8331 58.3799C52.7849 58.3495 52.7423 58.3252 52.7053 58.3061M54.9413 60.5101C56.1116 62.0885 57.2273 63.2551 58.2592 63.988C59.2841 64.7159 60.3 65.0661 61.2291 64.8525C62.1765 64.6347 62.8616 63.873 63.3093 62.7755C63.7569 61.6782 64.0029 60.1697 64.0408 58.2828L64.041 58.2728C64.0409 55.8433 64.2643 54.179 64.8575 52.8059C65.4469 51.4416 66.4238 50.3135 68.0332 49.0016L68.0387 48.9972L68.044 48.9925C69.1276 48.057 70.4709 47.1883 71.7598 46.5553C73.0653 45.9142 74.2486 45.5478 75.0259 45.5478C77.3532 45.5478 79.7427 46.5355 81.5518 48.0165C83.3699 49.505 84.5195 51.4198 84.5195 53.2205C84.5195 54.9492 83.4421 56.6716 81.8891 57.8143C80.3351 58.9579 78.4236 59.4355 76.8417 58.8445C76.4071 58.6822 75.9997 58.2645 75.6748 57.6385C75.3543 57.0208 75.1458 56.2582 75.0763 55.5144C75.0062 54.7641 75.0823 54.0842 75.2811 53.6155C75.4734 53.1625 75.7376 52.9776 76.07 52.9776C76.1443 52.9776 76.2593 53.007 76.3336 53.2783C76.4101 53.5578 76.3963 54.0018 76.2013 54.5235M52.7053 58.3061L76.6667 54.7065M52.7053 58.3061C52.7152 58.7877 52.9361 59.5437 53.3603 60.3889C53.7875 61.24 54.3915 62.1228 55.0935 62.8222L55.1028 62.8315L55.1116 62.8412C55.8093 63.6135 56.3628 64.4355 56.6866 65.1411C56.8473 65.4914 56.9628 65.8372 56.9991 66.1483C57.0334 66.4412 57.0095 66.8227 56.7342 67.0969L56.7277 67.1034L56.7209 67.1097C56.3276 67.4735 55.7384 67.6097 55.1161 67.6383C54.4749 67.6678 53.6994 67.587 52.8337 67.4219C51.0994 67.0911 48.9232 66.4059 46.5772 65.4804C41.8846 63.6291 36.4376 60.7863 32.3685 57.7835L32.3668 57.7823C25.607 52.75 19.7854 50.265 15.3798 50.2471C13.1923 50.2382 11.3676 50.8367 9.93169 52.0205C8.49199 53.2075 7.40019 55.0183 6.74828 57.5079L6.74837 57.5079L6.74578 57.517L5.40337 62.2721L5.0202 63.6294L4.46288 62.3338L2.67299 58.1732L2.67018 58.1666L2.66755 58.16C1.39066 54.9424 0.825824 52.4585 1.22239 50.1276C1.61963 47.7927 2.96588 45.6997 5.29843 43.2249M52.7053 58.3061L107.982 61.3485C108.143 61.3952 108.359 61.4811 108.634 61.6179C109.304 61.9517 110.237 62.5449 111.419 63.4284L111.427 63.4342L111.427 63.4341C113.32 64.7919 114.842 65.6164 116.824 66.0073C118.782 66.3936 121.155 66.3495 124.735 66.0523C128.535 65.7554 130.896 65.4181 132.966 64.426C135.035 63.434 136.77 61.8081 139.377 59.0628L139.378 59.0616C141.698 56.601 143.161 54.733 144.035 52.8558C144.917 50.9635 145.182 49.0998 145.182 46.6823C145.182 43.3731 144.432 38.8555 143.509 36.549C143.16 35.5758 142.899 34.8468 142.737 34.3262C143.1 34.627 143.579 35.0563 144.199 35.6128C144.937 36.2744 145.532 36.8007 146.021 37.1364C146.49 37.4576 147.006 37.7102 147.539 37.5608C148.06 37.415 148.395 36.9389 148.669 36.4106C148.956 35.8564 149.255 35.0742 149.624 34.0806C151.484 29.2907 150.458 23.3763 147.621 18.0831C144.78 12.7795 140.078 8.01325 134.444 5.51032C130.044 3.54559 123.864 2.34972 117.995 1.99477C112.141 1.64074 106.485 2.11632 103.164 3.5779L103.153 3.58268L103.154 3.5828C97.8771 6.05647 95.3468 11.3563 97.0731 16.672L97.0762 16.6817L97.0763 16.6816C97.7852 18.7216 99.0695 20.1548 100.73 20.7751C102.386 21.394 104.326 21.1695 106.284 20.0804C106.885 19.7804 107.383 19.4952 107.761 19.2015C108.139 18.9071 108.438 18.5725 108.576 18.1621C108.718 17.737 108.66 17.3105 108.482 16.8926C108.309 16.4868 108.012 16.0622 107.629 15.6045C107.299 15.2024 107.083 14.8997 106.963 14.6737C106.907 14.5681 106.883 14.4998 106.872 14.4604C106.897 14.4498 106.934 14.4366 106.989 14.4227C107.192 14.3713 107.513 14.3428 107.99 14.3428C108.546 14.3428 108.955 14.5618 109.249 14.9193C109.553 15.2903 109.753 15.8377 109.803 16.4998C109.904 17.828 109.393 19.4659 108.233 20.6212C107.796 21.0571 106.992 21.4728 105.997 21.7792C105.015 22.0815 103.908 22.2585 102.918 22.2585C100.233 22.2585 98.5605 21.6098 97.521 20.2126C96.4496 18.7725 95.9604 16.428 95.9604 12.8026V6.41305V5.91305H95.4604H87.8534C81.8279 5.91305 77.4233 6.85262 73.2061 9.86989C69.0206 12.8645 65.0617 17.8779 59.8403 25.9035L59.8394 25.9049C55.6477 32.3925 53.0743 35.7079 49.6164 37.235C46.1481 38.7667 41.7088 38.5374 33.6206 37.5675C25.7054 36.6004 20.009 36.4427 15.6019 37.3133C11.1671 38.1893 8.05148 40.1035 5.29843 43.2249M52.7053 58.3061C52.705 58.2949 52.7049 58.2837 52.7049 58.2728C52.7049 58.2029 52.7103 58.1641 52.7144 58.1459M52.7053 58.3061C52.6789 58.2925 52.6553 58.2815 52.6345 58.2728C52.6132 58.2638 52.5947 58.2571 52.579 58.2524C52.555 58.2451 52.5443 58.2443 52.5443 58.2444C52.5443 58.2445 52.5628 58.2461 52.5937 58.2363C52.6721 58.2114 52.7038 58.1678 52.7144 58.1459M76.2013 54.5235C76.2024 54.5208 76.2035 54.5182 76.2046 54.5155L76.6667 54.7065M76.2013 54.5235C76.2004 54.5258 76.1996 54.5281 76.1987 54.5303L76.6667 54.7065M76.2013 54.5235C75.9142 55.2222 75.8588 55.8877 76.1382 56.4306C76.4238 56.9853 76.9834 57.2679 77.603 57.3561C78.8186 57.5291 80.5453 57.0135 82.3046 55.8714M76.6667 54.7065C75.6226 57.2326 78.6057 57.6784 82.0363 55.4495M82.3046 55.8714C82.3033 55.8723 82.3019 55.8731 82.3006 55.8739L82.0363 55.4495M82.3046 55.8714C83.2941 55.2541 83.8527 54.4407 83.9239 53.5166C83.9937 52.6096 83.5837 51.7153 82.8952 50.9385C81.5205 49.3877 78.889 48.1246 75.6698 47.8191L75.6594 47.8181C73.6295 47.6684 72.0838 47.7347 70.8027 48.2209C69.5008 48.715 68.5329 49.618 67.6036 51.0054M82.3046 55.8714C82.306 55.8705 82.3073 55.8696 82.3087 55.8687L82.0363 55.4495M82.0363 55.4495C85.6161 53.2205 81.8872 48.9113 75.6226 48.3169L67.6036 51.0054M67.6036 51.0054C67.6048 51.0037 67.606 51.002 67.6072 51.0003L68.0156 51.2888L67.6 51.0107C67.6012 51.009 67.6024 51.0072 67.6036 51.0054ZM67.6036 51.0054C64.6508 55.1903 64.3705 61.3262 66.9648 66.8034M67.6036 51.0054L103.366 75.064L103.569 75.5208C103.569 75.5209 103.569 75.521 103.568 75.5212C97.1099 78.3973 89.0899 78.6908 82.1454 77.0552C75.2245 75.4252 69.223 71.8394 66.9648 66.8034M66.9648 66.8034C66.9641 66.8018 66.9633 66.8001 66.9626 66.7985L67.4189 66.5941L66.9671 66.8083C66.9664 66.8066 66.9656 66.805 66.9648 66.8034ZM5.29843 43.2249C5.29658 43.227 5.29472 43.2291 5.29286 43.2312L5.66796 43.5618L5.30419 43.2188C5.30227 43.2208 5.30035 43.2229 5.29843 43.2249ZM52.7144 58.1459C52.7167 58.1359 52.7185 58.132 52.7189 58.1326C52.7193 58.1332 52.7181 58.1382 52.7144 58.1459ZM109.7 0.964355L109.698 0.964699C106.453 1.40543 102.639 2.58134 101.069 3.43469L101.061 3.43895L101.053 3.44292C100.218 3.85867 98.7215 4.16119 97.0525 4.31065C95.3657 4.4617 93.4295 4.46255 91.6737 4.23502C85.2853 3.57778 79.8448 4.67497 74.6751 7.89615C69.4861 11.1294 64.5366 16.523 59.1838 24.5219C55.1596 30.6096 52.0788 34.3163 48.5791 36.1655C45.0446 38.0331 41.1692 37.9652 35.6921 36.7694C25.0054 34.4776 16.211 34.8655 10.0983 37.5014C4.02526 40.1201 0.573244 44.9624 0.5 51.7372C0.500672 54.3178 1.4803 58.1103 2.92574 61.7473C4.29101 65.1825 6.036 68.3886 7.67548 70.2403C7.73155 70.026 7.78807 69.7312 7.8385 69.3516C8.00133 68.1259 8.07631 66.2241 8.00221 63.9356L8.00218 63.9346C7.92694 61.4611 8.03929 59.1647 8.30553 57.3459C8.43855 56.4372 8.6116 55.6364 8.82376 54.9876C9.03109 54.3535 9.29401 53.806 9.64063 53.4607C11.6727 51.4363 14.5257 50.9646 18.093 51.8435C21.6472 52.7192 25.9939 54.9503 31.1562 58.4534L31.1566 58.4536C37.4973 62.764 41.5527 65.2193 45.3656 66.6072C49.1615 67.9889 52.7466 68.323 58.1712 68.323C61.2335 68.323 63.4829 68.4707 65.053 68.8377C66.6045 69.2002 67.6414 69.8131 68.0329 70.8673C68.2775 71.4348 69.0026 72.189 70.1776 73.0382C71.3356 73.8751 72.8557 74.7522 74.5719 75.5795C78.0075 77.2356 82.1717 78.6648 85.688 79.1757L85.6912 79.1761C90.0148 79.8332 94.8295 79.4691 99.2456 78.2776C103.666 77.085 107.645 75.0748 110.326 72.4761L110.335 72.4682L110.343 72.4608C112.362 70.6724 113.908 69.5079 115.559 68.8422C117.223 68.1711 118.949 68.0245 121.297 68.1755L121.297 68.1755C126.813 68.537 132.923 66.1824 137.665 62.5206C142.418 58.8497 145.674 53.964 145.674 49.3571C145.674 48.3139 146.028 46.62 146.57 44.7767C147.117 42.9174 147.871 40.8512 148.703 39.0436L148.704 39.0405C150.768 34.6344 151.672 30.7054 151.473 27.0205C151.274 23.3406 149.972 19.8624 147.554 16.3581C139.169 4.48882 125.34 -1.24049 109.7 0.964355ZM107.908 61.1043C107.908 61.1042 107.908 61.1064 107.909 61.1112C107.909 61.1068 107.909 61.1044 107.908 61.1043ZM106.828 14.4843C106.829 14.4843 106.83 14.4833 106.832 14.4811C106.829 14.4831 106.828 14.4842 106.828 14.4843Z" fill="#555555" stroke="#555555"/>
</svg>
