<svg width="213" height="90" viewBox="0 0 213 90" fill="none" xmlns="http://www.w3.org/2000/svg">
<path d="M58.3278 1.66744C37.3459 8.12568 21.6096 27.0968 25.241 41.6278C26.2498 45.6642 25.8463 46.2696 20.3991 46.2696C3.65395 46.2696 -4.81948 59.7916 2.84696 74.3226C8.49591 85.2209 30.4865 90.2664 45.2141 83.8081C50.4596 81.5881 52.2753 81.5881 58.7313 84.8172C68.4152 89.6609 81.3271 89.6609 92.4232 84.6154L101.098 80.579L107.151 85.0191C120.063 94.1009 145.08 90.2664 157.184 77.5517L161.623 72.708L169.088 76.7444C173.728 79.1663 180.184 80.579 187.447 80.579C197.131 80.579 199.552 79.7717 203.99 74.9281C209.841 69.0753 214.279 59.1861 212.665 56.3606C212.06 55.3515 208.63 56.3606 204.999 58.3788C194.306 64.8371 189.666 63.6261 178.368 51.3151C168.079 40.4169 167.877 40.215 156.579 40.215C146.492 40.215 145.08 39.8114 145.08 36.1786C145.08 33.9586 142.053 28.7113 138.22 24.6749C131.764 17.4094 130.755 17.2076 118.247 17.0058C106.747 17.0058 104.326 16.4003 99.2827 11.5566C88.59 1.46563 72.4501 -2.57077 58.3278 1.66744ZM88.59 6.91476C91.6162 8.52932 96.2565 12.3639 98.4757 15.1894L102.914 20.6385L97.4669 26.2895C94.4407 29.5186 91.818 34.9677 91.2127 39.8114C90.204 46.6733 91.011 48.6915 95.2477 53.1315C101.502 59.3879 106.546 59.7916 112.396 54.3424C117.642 49.2969 117.844 47.6824 113.809 44.2514C111.388 42.2332 109.975 42.2332 108.361 43.8478C106.546 45.6642 106.747 46.2696 109.37 46.2696C114.817 46.2696 113.405 52.1224 107.353 53.5352C99.4844 55.5534 95.6512 52.1224 95.046 42.2332C94.6425 36.1786 95.4495 32.5459 98.0722 29.7204C108.16 18.6203 125.308 16.6021 134.79 25.4822C143.869 33.9586 144.474 39.0041 137.01 44.2514C127.931 50.7097 129.747 52.3242 140.439 47.0769C156.579 38.8023 167.07 41.426 178.973 56.1588C186.841 65.8462 193.096 68.0662 201.367 63.828C210.446 59.3879 211.051 63.4243 202.981 71.4971C198.139 76.3408 194.104 78.5608 190.069 78.5608C179.175 78.5608 168.482 74.1208 160.614 66.2498C152.141 57.9752 149.316 56.9661 145.685 60.5988C143.264 63.0207 144.273 68.4698 147.299 68.4698C148.106 68.4698 148.509 67.0571 147.904 65.4425C147.097 63.4243 147.904 62.4152 150.93 62.4152C155.974 62.4152 158.798 71.0935 155.167 75.5335C150.527 80.9827 135.799 86.6336 125.712 86.6336C114.212 86.6336 101.704 80.1754 103.519 75.5335C105.133 71.2953 103.721 71.6989 97.6687 77.3499C86.169 88.0464 56.7138 87.4409 53.284 76.3408C51.6701 71.4971 47.8368 71.2953 48.6438 75.9372C49.0473 78.7626 46.8281 80.1754 37.9512 82.3954C27.662 85.0191 25.6445 85.0191 17.5746 81.7899C11.1186 79.3681 7.28542 76.3408 4.66269 71.2953C1.23297 64.8371 1.03122 63.828 3.8557 58.7825C8.69766 50.5079 16.1623 47.4806 24.434 50.9115C28.0655 52.5261 32.9075 55.7552 35.1267 58.177C44.8106 69.2771 65.1872 71.9008 73.8624 63.2225C78.0991 58.9843 78.7043 56.7643 77.8973 50.9115C75.8799 38.8023 67.8099 33.3532 57.5208 37.3896C53.4858 39.0041 53.284 46.2696 57.1173 46.2696C58.7313 46.2696 59.74 44.6551 59.5382 42.8387C59.1347 37.7932 65.5907 37.3896 70.2309 42.0314C75.0729 46.8751 75.8799 58.7825 71.6431 62.2134C62.161 70.0844 41.3809 63.6261 32.504 50.306C22.82 35.9768 31.0917 17.0058 51.2666 7.72204C61.1522 3.08018 80.5201 2.67654 88.59 6.91476Z" fill="#555555"/>
</svg>
