<svg width="360" height="356" viewBox="0 0 360 356" fill="none" xmlns="http://www.w3.org/2000/svg">
<g clip-path="url(#clip0_572_3)">
<ellipse cx="180.2" cy="160.566" rx="46.728" ry="46.8469" fill="#FFD116" fill-opacity="0.86"/>
<path d="M169.705 131.713C164.736 133.146 163.579 134.17 160.516 140.109L157.725 145.502L161.06 147.072C164.464 148.642 164.94 149.325 163.919 151.031C163.443 151.714 162.626 151.577 160.107 150.485C156.159 148.847 155.887 148.779 155.41 150.28C155.206 150.963 154.117 153.762 152.96 156.561C151.802 159.291 150.645 163.182 150.441 165.093C150.033 168.438 150.169 168.848 152.211 171.237C153.504 172.671 156.159 174.65 158.269 175.743C160.38 176.767 162.558 178.2 163.17 178.883C165.349 181.408 169.229 190.01 169.229 192.467C169.229 194.515 168.889 194.993 166.438 196.222C164.668 197.177 163.783 197.996 164.055 198.611C164.532 199.908 159.767 205.505 156.567 207.553C153.708 209.26 154.117 209.806 156.976 208.168C159.222 206.871 159.699 206.939 159.767 208.304C159.767 209.123 159.971 208.919 160.311 207.826C161.333 204.413 163.102 201.751 164.055 202.092C164.736 202.365 164.94 201.819 164.736 199.976C164.6 197.587 164.6 197.519 166.71 197.928C168.072 198.201 170.25 197.792 172.633 196.904C175.832 195.744 175.423 195.402 171.952 196.29C171.203 196.495 170.863 195.744 170.59 193.15C170.046 188.644 165.213 179.087 162.286 176.903C161.06 175.947 158.882 174.719 157.452 174.104C154.321 172.807 153.64 171.374 155.41 169.394C157.18 167.414 162.286 158.267 165.281 151.85C169.842 142.089 171.407 137.379 171.067 135.058C170.658 132.668 171.68 131.713 173.722 132.532C174.47 132.805 174.675 133.419 174.402 134.716C174.198 135.672 173.381 141.133 172.701 146.731C171.952 152.396 171.135 157.926 170.931 159.018C169.705 164.001 165.349 168.097 162.013 167.278C159.29 166.595 160.175 168.029 163.239 169.258C165.077 169.94 167.051 170.213 168.82 170.008C171.203 169.667 171.407 169.735 170.114 170.418C167.799 171.579 168.208 172.329 170.727 171.579C174.13 170.623 175.015 170.759 173.994 171.988C173.517 172.534 172.701 173.012 172.224 173.012C171.68 173.012 171.271 173.353 171.271 173.763C171.271 174.241 172.02 174.377 173.313 174.173C174.402 173.899 175.492 174.036 175.696 174.377C176.308 175.333 179.099 175.196 181.822 174.104C185.566 172.534 184.613 174.104 180.665 176.016C178.283 177.108 177.398 177.79 178.078 178.064C178.623 178.268 180.325 178.883 181.754 179.361C183.864 180.111 184.477 180.658 184.613 182.091C184.681 183.115 185.43 185.026 186.247 186.392C187.676 188.644 187.676 188.849 186.587 190.078C185.907 190.829 183.864 192.194 181.958 193.15C179.916 194.105 179.031 194.856 179.848 194.856C181.414 194.856 183.66 193.423 186.723 190.556L188.97 188.44L194.688 192.399C197.819 194.583 201.019 197.041 201.767 197.792C202.857 199.089 204.967 204.891 209.868 220.455L210.685 223.186L207.69 219.773C206.056 217.861 204.695 216.701 204.626 217.11C204.626 217.52 205.443 218.544 206.396 219.499C210.617 223.459 211.23 225.643 211.774 238.204C212.046 244.552 212.659 250.832 213.136 252.198C213.884 254.314 213.816 255.133 212.659 258.205C211.91 260.253 211.161 261.686 211.025 261.55C210.821 261.413 210.413 257.727 210.072 253.495L209.46 245.713L209.664 253.426C209.732 257.659 209.596 261.277 209.255 261.481C208.915 261.686 208.37 262.642 207.962 263.598C207.622 264.553 207.009 265.031 206.601 264.758C206.124 264.485 205.92 264.69 206.124 265.236C206.328 265.782 205.852 267.011 205.171 268.103C204.15 269.537 203.81 271.107 203.878 274.452C203.878 276.909 204.218 279.367 204.626 279.913C205.103 280.39 205.171 281.21 204.899 281.619C204.626 282.165 204.695 282.234 205.171 281.961C206.124 281.414 206.941 283.258 207.554 287.149C207.826 289.06 207.622 290.016 206.601 291.176C205.716 292.2 205.307 293.565 205.443 295.067C205.58 297.183 205.171 297.866 202.244 300.528C200.338 302.235 199.657 303.122 200.746 302.44L202.584 301.347V305.375C202.584 308.72 202.312 309.607 201.291 310.222C199.521 311.109 190.536 311.109 189.991 310.153C189.719 309.812 189.719 307.628 189.991 305.375C190.331 302.235 190.672 301.347 191.42 301.62C191.965 301.825 192.918 302.167 193.599 302.371C194.552 302.713 194.552 302.644 193.463 301.893C192.714 301.416 190.944 299.914 189.446 298.685C186.86 296.364 186.792 296.228 187.268 292.746C187.54 290.152 187.404 288.65 186.519 286.876C185.498 284.623 185.498 284.35 186.86 281.278C188.221 278.138 189.651 277.592 189.651 280.254C189.651 280.937 189.991 281.551 190.331 281.551C191.557 281.551 191.08 280.254 188.63 276.704C185.907 272.677 184.886 269.537 184.886 264.758C184.886 262.028 185.498 260.184 187.676 256.02C189.174 253.085 190.331 250.628 190.195 250.491C190.059 250.355 188.425 253.017 186.655 256.362C183.66 262.028 183.388 262.847 183.728 265.919L184.137 269.264H180.325C177.261 269.264 176.649 269.059 176.989 268.24C177.33 267.284 177.125 267.284 175.355 268.24C173.722 269.059 172.292 269.127 167.119 268.581C159.903 267.83 157.861 266.533 156.908 261.959C156.363 259.502 156.363 259.57 156.636 262.574C156.84 264.417 156.84 265.85 156.704 265.85C156.567 265.85 155.614 264.622 154.593 263.12L152.687 260.389L154.117 253.358C157.589 236.429 159.018 227.691 158.95 223.868C158.814 219.841 158.814 219.841 158.337 225.234C158.065 228.237 157.316 232.879 156.704 235.541C155.751 239.501 155.274 240.525 154.049 240.866C153.3 241.071 152.279 240.934 151.802 240.525C151.326 240.115 148.331 239.705 145.131 239.637C141.932 239.501 138.937 239.091 138.46 238.75C137.984 238.34 136.554 238.067 135.329 238.204C133.355 238.34 132.878 237.999 130.972 235.337C129.815 233.63 128.386 230.217 127.705 227.691C127.024 225.234 124.914 219.773 123.008 215.54C119.877 208.714 119.468 207.485 119.672 204.004L119.877 200.181L122.94 200.044C126.139 199.908 130.428 197.928 130.972 196.358C131.108 195.88 130.087 196.29 128.726 197.246C126.956 198.406 125.254 198.952 123.348 198.952C120.557 198.952 120.421 198.884 118.515 194.993C115.792 189.737 115.792 189.6 117.017 190.624C117.902 191.375 118.515 191.238 121.034 189.668C124.778 187.279 127.024 184.89 127.024 183.183C127.024 180.589 128.317 181.955 130.019 186.528C130.972 189.054 131.789 191.58 131.789 192.126C131.789 192.74 132.061 192.672 132.742 191.716C133.695 190.419 133.763 190.487 135.533 192.126C137.916 194.31 140.162 198.406 141.592 202.843C142.272 204.755 143.634 207.485 144.791 208.919C147.105 211.854 147.242 213.629 145.404 216.018C144.655 216.974 144.042 217.929 144.042 218.202C144.042 218.953 146.22 216.701 147.65 214.448C148.603 212.946 149.08 212.673 150.169 213.287C151.734 214.107 152.892 214.175 151.598 213.356C150.781 212.81 150.849 212.468 152.279 211.24L153.913 209.738L152.211 210.693C149.556 212.264 147.446 212.605 147.446 211.513C147.446 211.035 146.561 209.601 145.472 208.373C144.383 207.144 142.749 203.867 141.728 201.137C139.686 195.334 137.303 191.921 133.831 189.737C131.925 188.508 131.177 187.347 130.223 184.344C129.339 181.682 128.658 180.521 127.841 180.521C126.82 180.521 126.684 179.702 126.616 174.855C126.548 169.872 126.207 168.507 123.62 162.431C122.055 158.677 120.217 153.762 119.604 151.509C118.311 146.867 116.677 145.843 115.316 148.71C114.703 150.144 114.771 151.782 115.52 156.287C116.813 163.387 116.064 162.977 113.886 155.332C112.933 152.192 111.572 148.983 110.755 148.164C109.257 146.731 109.257 146.731 108.236 148.096C107.692 148.847 107.419 149.802 107.555 150.28C107.76 150.826 107.419 151.168 106.602 151.168C104.152 151.168 104.016 155.332 106.262 161.066C106.739 162.158 106.67 162.295 105.854 161.544C104.492 160.315 103.335 160.52 102.858 162.226C102.518 163.182 103.063 165.162 104.424 168.165C105.513 170.623 107.351 174.787 108.372 177.449C110.074 181.75 111.504 183.661 115.111 186.596C115.86 187.211 116.133 188.098 115.928 189.259C115.724 190.283 116.201 192.126 117.086 193.764C118.175 195.88 118.583 198.27 118.923 203.389C119.264 209.806 119.468 210.625 122.736 217.383C124.573 221.343 126.548 226.053 126.956 227.964C127.977 231.992 132.674 240.593 135.533 243.665C137.167 245.371 138.324 245.917 141.319 246.327C144.723 246.805 145.404 246.6 149.692 244.416C152.211 243.05 154.593 241.958 154.866 241.958C155.478 241.958 154.73 247.556 153.3 253.222C151.87 258.751 151.939 261.004 153.572 263.461C155.274 266.055 155.274 267.693 153.504 270.561C152.483 272.335 152.211 273.496 152.551 275.476C152.892 277.319 152.483 279.913 151.19 284.281C149.964 288.65 149.488 291.927 149.556 295.067C149.624 297.593 149.488 300.323 149.216 301.074C149.011 301.893 149.011 303.259 149.352 304.078C149.828 305.375 150.033 304.829 150.373 301.279C150.577 298.89 150.577 295.613 150.373 294.043C150.101 291.722 150.645 289.196 152.892 282.234C155.41 274.315 155.887 273.359 157.316 273.359C160.38 273.359 160.652 274.725 159.427 283.121C157.929 293.907 157.997 305.511 159.699 313.635C164.464 336.503 165.893 344.285 166.506 350.634C167.255 358.074 170.386 377.802 170.931 378.417C171.543 378.963 171.271 376.847 169.91 369.27C169.229 365.105 168.14 357.46 167.527 352.204C166.914 346.947 165.077 335.752 163.375 327.287C159.835 309.812 159.699 306.194 162.354 291.79C163.102 287.49 163.919 282.234 164.123 280.117C164.532 276.431 164.668 276.226 166.71 275.817C172.36 274.656 173.449 274.588 173.994 275.407C174.334 276.022 174.743 275.134 175.015 273.155C175.696 268.513 177.398 268.786 177.466 273.496C177.466 275.476 177.67 276.704 177.874 276.226C178.01 275.817 178.895 275.407 179.78 275.407C181.005 275.407 181.414 275.885 181.822 277.933C182.095 279.367 182.775 281.278 183.456 282.234C185.702 285.579 186.996 290.562 186.247 293.087C185.566 295.545 185.975 296.842 188.085 298.753C189.174 299.709 189.31 300.87 189.242 306.604C189.174 310.29 188.561 316.024 187.949 319.369C186.86 325.308 186.996 328.516 188.493 329.472C188.902 329.745 189.583 331.247 189.991 332.885C190.536 335.138 190.944 335.82 192.033 335.684C192.714 335.616 193.667 336.093 194.143 336.708C194.824 337.664 195.233 337.527 197.683 335.547C203.265 331.179 203.469 330.291 203.537 314.727C203.605 301.347 203.673 300.938 205.239 298.822C206.124 297.661 206.669 296.228 206.464 295.681C206.26 295.204 206.396 294.316 206.737 293.77C207.077 293.224 207.349 297.388 207.349 304.419C207.349 310.768 207.009 316.502 206.669 317.048C206.192 317.799 205.988 316.911 205.92 313.976C205.92 311.723 205.716 310.29 205.511 310.768C205.307 311.314 205.511 316.638 205.92 322.714C206.737 333.636 206.669 333.841 205.035 339.916C204.082 343.261 203.401 346.128 203.537 346.196C203.673 346.333 204.49 344.353 205.375 341.828C206.737 337.937 207.009 335.616 207.213 327.97C207.417 316.092 208.098 293.019 208.37 285.783C208.507 282.711 209.187 278.274 209.8 275.885C210.481 273.564 211.093 269.81 211.23 267.557C211.298 265.031 212.046 261.755 213.204 259.092C214.769 255.27 214.837 254.519 214.089 252.949C213.544 251.788 213.067 246.737 212.727 238.886C212.523 232.128 212.046 225.643 211.842 224.551C210.617 219.295 203.605 198.474 202.72 197.45C201.427 195.88 189.991 188.03 189.106 188.03C188.085 188.03 185.566 183.661 185.566 181.955C185.566 181.135 186.043 180.316 186.587 180.043C188.085 179.497 188.63 180.316 187.608 181.545C186.383 182.979 187.132 183.525 189.446 182.842C192.714 181.955 193.871 181.955 193.054 182.91C192.442 183.661 192.918 183.729 195.233 183.456C201.019 182.774 202.857 181.955 205.511 178.883C207.69 176.22 207.962 175.606 207.349 174.036C207.009 173.08 206.669 169.258 206.737 165.64C206.805 159.701 206.873 159.359 207.417 162.09C207.758 163.796 207.894 167.005 207.69 169.258C207.417 172.602 207.486 173.012 208.098 171.647C208.575 170.555 208.711 167.073 208.507 162.09C208.234 156.014 208.302 154.922 208.779 157.311C209.528 160.725 209.255 171.92 208.37 174.036C207.894 175.196 207.962 175.265 208.779 174.514C211.298 172.193 209.664 148.574 206.669 144.41C205.035 142.089 201.427 138.88 200.406 138.88C200.066 138.88 198.908 137.993 197.819 136.901C196.458 135.535 194.688 134.716 191.897 134.17C189.719 133.761 187.2 132.941 186.451 132.395C185.498 131.713 183.592 131.371 181.346 131.44C179.372 131.508 176.649 131.371 175.355 131.167C174.062 130.962 171.475 131.235 169.705 131.713ZM178.759 136.013C178.759 137.652 176.104 147.482 175.764 146.935C175.696 146.867 175.764 143.386 175.9 139.358C176.172 132.122 176.172 131.986 177.466 133.146C178.146 133.761 178.759 135.058 178.759 136.013ZM181.754 135.126C182.026 136.423 182.026 138.539 181.822 139.699C181.618 140.928 180.869 147.482 180.189 154.308C179.372 162.363 178.487 167.483 177.738 168.916C177.125 170.077 176.513 170.964 176.308 170.828C176.172 170.623 176.513 168.37 177.057 165.776C177.602 163.182 178.078 157.653 178.078 153.489C178.078 148.642 178.487 144.683 179.167 142.293C179.78 140.314 180.12 137.31 179.984 135.672C179.712 132.054 181.142 131.644 181.754 135.126ZM184.341 134.443C184.886 135.672 184.817 137.856 184.001 143.454C183.388 147.482 182.707 153.216 182.503 156.151C182.026 162.636 179.916 169.804 177.942 171.647C176.172 173.285 175.355 172.876 177.057 171.169C179.031 169.258 180.052 165.913 180.461 160.588C180.733 157.858 181.346 151.646 181.958 146.799C182.503 141.884 182.843 136.764 182.639 135.331C182.231 132.395 183.184 131.917 184.341 134.443ZM187.2 133.761C188.289 134.58 188.357 135.058 187.745 136.628C186.519 139.904 186.179 143.454 186.179 152.67C186.247 162.431 185.702 165.162 182.98 169.189C180.529 172.739 179.099 173.285 180.393 170.145C181.822 166.732 183.524 157.858 183.524 153.762C183.524 151.782 184.001 147.345 184.613 144C185.226 140.587 185.566 136.696 185.362 135.262C184.954 132.532 185.226 132.259 187.2 133.761ZM190.672 135.945C190.399 136.628 190.059 138.061 189.923 139.222C189.719 140.928 189.787 140.792 190.536 138.607C191.557 135.331 193.326 134.307 192.714 137.31C192.373 139.017 192.442 139.085 192.986 137.652C193.735 136.013 195.369 135.672 196.254 136.969C197.343 138.744 196.458 158.677 194.96 165.025C194.211 168.37 193.463 170.896 193.258 170.691C193.054 170.555 193.395 167.346 194.007 163.66C194.756 159.359 195.096 154.24 194.96 149.461L194.688 141.952L194.552 149.939C194.484 154.786 194.143 157.994 193.735 157.994C193.395 157.994 192.986 157.311 192.986 156.424C192.918 155.605 192.646 151.373 192.373 147.072L191.897 139.222L191.829 145.707C191.761 149.325 192.033 154.717 192.373 157.789C193.054 162.909 192.578 169.599 191.284 173.831C190.944 175.06 188.766 176.63 186.315 177.449L184.613 177.995L186.451 175.811C189.923 171.647 190.536 167.687 189.787 153.693L189.038 141.27L189.31 153.216C189.651 169.189 188.425 174.446 183.796 176.63C180.529 178.268 179.304 178.064 182.026 176.425C186.315 173.831 186.996 170.828 187.2 154.376C187.404 143.113 187.676 139.358 188.493 137.31C189.106 135.945 189.923 134.785 190.399 134.785C190.876 134.785 190.944 135.262 190.672 135.945ZM174.402 147.345C173.858 150.758 173.177 155.264 172.973 157.311C172.224 163.114 170.863 165.776 167.936 167.414C164.123 169.531 164.055 169.258 167.459 165.981C171.067 162.499 172.156 159.018 173.245 148.096C173.654 143.932 174.266 139.631 174.539 138.539L175.015 136.491L175.219 138.812C175.355 140.109 175.015 143.932 174.402 147.345ZM198.772 140.382C198.5 140.792 198.704 141.338 199.181 141.611C201.631 143.113 199.998 167.278 197.07 173.353C196.322 174.855 195.913 175.47 196.117 174.787C196.322 174.036 196.798 169.872 197.139 165.571C197.479 161.202 197.955 155.605 198.228 153.079C198.568 149.802 198.432 148.164 197.819 147.413C196.866 146.253 197.479 138.607 198.568 139.29C198.908 139.495 198.976 139.973 198.772 140.382ZM202.176 141.338C203.537 142.703 203.605 147.072 202.244 156.151C201.631 159.974 200.883 166.117 200.542 169.804C199.93 176.289 198.908 179.292 196.798 181.477C195.301 182.91 194.007 182.91 195.164 181.408C195.913 180.521 195.913 180.248 195.301 180.043C194.211 179.634 195.437 177.108 196.594 177.108C197.207 177.108 197.207 177.313 196.594 177.927C195.641 178.883 195.505 180.111 196.39 179.497C197.343 178.951 198.908 173.012 200.202 164.957C201.019 160.11 201.291 155.195 201.087 149.052C201.019 144.205 200.951 140.246 201.019 140.246C201.087 140.246 201.631 140.723 202.176 141.338ZM205.988 146.458C205.988 147.072 205.511 150.076 204.967 153.011C204.422 155.946 203.946 160.656 203.946 163.455C203.946 169.189 202.789 174.855 200.814 178.814C198.772 182.979 197.615 182.569 199.521 178.337C200.746 175.606 201.359 172.602 201.904 166.186C202.312 161.476 202.925 156.424 203.265 154.922C203.605 153.42 203.946 150.007 203.946 147.413C204.014 143.044 204.082 142.771 204.967 143.932C205.511 144.683 205.988 145.843 205.988 146.458ZM206.805 155.537C206.328 159.701 205.852 165.571 205.648 168.575C205.239 175.333 204.354 178.61 202.584 180.18C200.883 181.75 200.883 181.613 202.925 175.47C204.15 171.852 204.626 168.916 204.626 165.367C204.626 160.315 206.737 145.57 207.281 147.14C207.417 147.618 207.213 151.373 206.805 155.537ZM118.719 152.192C119.196 154.308 119.196 155.878 118.787 156.219C118.447 156.629 118.175 157.448 118.175 158.131C118.175 158.813 117.902 159.359 117.562 159.359C116.473 159.359 115.316 150.69 116.201 149.052C117.154 147.14 117.902 148.028 118.719 152.192ZM111.436 150.485C115.724 164.684 115.656 164.411 116.881 162.909C117.97 161.476 118.039 161.476 119.128 164.411C120.149 167.005 120.149 167.619 119.196 170.282C118.651 171.852 118.175 173.968 118.243 174.992C118.243 176.016 118.855 174.787 119.672 171.988C120.966 167.414 120.966 167.073 119.877 163.728C118.719 160.247 118.651 157.38 119.808 157.107C120.761 156.902 124.778 167.141 125.527 171.783C126.411 177.586 126.003 184.48 124.71 185.914C124.097 186.528 122.395 187.757 120.898 188.644L118.175 190.146L117.086 187.893C116.541 186.596 115.111 185.095 114.022 184.48C112.116 183.388 107.964 176.084 107.964 173.899C107.964 173.422 107.011 171.032 105.854 168.575C104.696 166.117 103.88 163.455 104.016 162.636C104.288 161.407 104.764 161.953 106.398 165.367C109.802 172.261 109.598 169.531 105.854 156.492C105.173 153.967 105.173 153.011 105.786 152.396C106.33 151.85 106.807 151.782 107.351 152.328C108.236 153.216 110.823 163.182 110.823 165.708C110.755 167.619 110.823 167.619 112.048 166.527C113.137 165.571 113.205 165.162 112.457 164.411C111.572 163.592 109.802 156.902 108.849 150.963C108.508 148.642 108.577 148.301 109.666 148.505C110.346 148.642 111.163 149.529 111.436 150.485ZM176.581 159.496C176.376 165.844 176.036 167.824 175.151 168.711C173.722 170.213 173.109 169.531 173.926 167.414C174.266 166.459 174.879 162.158 175.287 157.926C175.696 153.625 176.036 149.802 176.104 149.461C176.172 149.052 176.376 149.393 176.513 150.144C176.717 150.895 176.717 155.059 176.581 159.496ZM173.654 163.455C173.245 167.073 172.905 167.756 171.475 168.302C168.48 169.394 167.527 169.053 169.501 167.483C171.748 165.708 173.313 162.773 173.313 160.315C173.313 159.291 173.517 158.608 173.722 158.882C173.926 159.086 173.926 161.134 173.654 163.455ZM195.641 170.759C194.892 176.016 194.143 177.108 190.467 178.337L188.153 179.156L190.263 176.698C192.714 173.899 195.096 169.531 195.096 167.687C195.096 166.459 195.777 165.298 196.186 165.708C196.322 165.776 196.049 168.097 195.641 170.759ZM185.907 168.029C185.43 170.145 183.864 172.125 181.958 173.08C181.21 173.49 181.686 172.534 183.184 170.623C184.477 168.848 185.566 167.141 185.566 166.8C185.566 166.459 185.77 166.186 185.975 166.186C186.179 166.186 186.179 167.005 185.907 168.029ZM192.169 180.18C190.127 182.023 188.698 182.432 189.106 180.999C189.446 180.111 192.237 178.473 193.395 178.473C193.803 178.541 193.19 179.292 192.169 180.18ZM169.91 196.495C169.91 196.631 169.433 196.904 168.889 197.177C168.344 197.382 167.867 197.246 167.867 196.904C167.867 196.495 168.344 196.222 168.889 196.222C169.433 196.222 169.91 196.358 169.91 196.495ZM139.686 240.252C141.523 240.798 144.927 241.276 147.31 241.276C149.624 241.276 151.53 241.48 151.53 241.753C151.53 242.095 150.305 242.982 148.807 243.801C144.042 246.532 136.69 245.576 134.852 241.89C134.308 240.866 133.831 239.842 133.831 239.569C133.831 238.955 136.282 239.228 139.686 240.252ZM209.46 273.428C208.711 275.817 208.03 278.752 208.03 280.049V282.438L206.26 280.527C204.626 278.752 204.558 278.274 204.899 273.974C205.171 270.287 205.716 268.649 207.486 265.919L209.732 262.505L210.345 265.782C210.821 268.513 210.617 269.946 209.46 273.428ZM155.206 273.086C154.253 275.68 153.913 276.022 153.368 275.066C152.892 274.179 153.164 273.018 154.185 270.97C154.934 269.4 155.683 267.693 155.683 267.147C155.751 266.601 155.955 267.079 156.091 268.103C156.295 269.127 155.887 271.38 155.206 273.086ZM159.699 269.946C159.699 271.516 159.427 271.994 158.337 271.994C157.248 271.994 156.976 271.516 156.976 269.946C156.976 268.376 157.248 267.898 158.337 267.898C159.427 267.898 159.699 268.376 159.699 269.946ZM167.391 269.946C169.161 269.946 169.297 270.151 169.093 272.131C168.889 274.179 168.684 274.383 166.234 274.588C161.605 274.998 160.38 274.383 160.38 271.584V269.059L162.966 269.537C164.328 269.741 166.37 269.946 167.391 269.946ZM174.334 271.107C174.13 271.653 173.994 272.54 173.994 273.086C173.994 273.837 173.517 273.974 172.156 273.632C169.705 273.018 169.705 273.018 170.182 271.448C170.454 270.561 171.271 270.151 172.701 270.151C174.198 270.151 174.607 270.424 174.334 271.107ZM184.749 272.95C184.954 274.725 184.817 274.861 183.388 274.52C182.503 274.247 181.005 274.042 179.984 274.042C178.419 274.042 178.078 273.701 178.078 272.472C178.078 270.287 178.351 270.151 181.618 270.561C184.205 270.902 184.545 271.175 184.749 272.95ZM186.928 276.09C187.472 277.114 187.404 277.933 186.587 279.503C185.498 281.551 184.205 281.687 184.205 279.776C184.205 279.23 183.933 278.889 183.592 279.093C182.98 279.503 182.163 278.001 182.163 276.499C182.163 275.271 184.749 275.339 185.09 276.636C185.294 277.455 185.43 277.319 185.498 276.226C185.566 274.383 185.975 274.315 186.928 276.09ZM163.375 279.298C163.17 281.141 162.217 287.49 161.196 293.497L159.358 304.419L159.154 298.276C159.018 294.862 159.222 290.425 159.631 288.377C159.971 286.329 160.516 282.711 160.72 280.322C161.128 276.773 161.401 276.09 162.49 276.09C163.579 276.09 163.715 276.499 163.375 279.298ZM202.448 319.437L202.72 327.356L200.474 331.042C199.249 333.022 197.819 334.865 197.207 335.07C196.594 335.274 195.777 335.616 195.369 335.82C194.96 336.025 194.416 335.547 194.211 334.66C193.871 333.431 193.599 333.295 192.918 333.977C192.51 334.387 191.897 334.796 191.625 334.796C190.399 334.796 189.719 327.492 190.127 319.779L190.536 311.655L193.326 311.996C194.892 312.201 197.343 312.065 198.84 311.723C200.338 311.382 201.699 311.246 201.836 311.382C202.04 311.519 202.244 315.137 202.448 319.437ZM189.038 323.192C188.561 327.219 188.425 327.629 188.357 325.171C188.289 322.168 188.902 317.458 189.378 317.867C189.446 318.004 189.31 320.393 189.038 323.192Z" fill="black"/>
<path d="M195.232 139.563C195.232 140.86 195.369 141.406 195.573 140.723C195.709 140.109 195.709 139.017 195.573 138.334C195.369 137.72 195.232 138.266 195.232 139.563Z" fill="black"/>
<path d="M198.364 143.863C198.16 145.16 198.228 145.57 198.636 145.16C199.045 144.751 199.181 143.932 199.045 143.249C198.84 142.293 198.704 142.43 198.364 143.863Z" fill="black"/>
<path d="M113.886 171.92C114.567 172.807 115.18 173.49 115.316 173.353C115.792 172.944 114.022 170.282 113.342 170.282C113.001 170.282 113.205 171.032 113.886 171.92Z" fill="black"/>
<path d="M193.054 328.448C193.054 329.54 193.395 330.837 193.735 331.383C194.211 332.134 194.416 331.656 194.416 329.472C194.416 327.902 194.143 326.605 193.735 326.605C193.395 326.605 193.054 327.424 193.054 328.448Z" fill="black"/>
<path d="M133.695 193.286C134.036 194.72 134.172 194.856 134.376 193.901C134.512 193.218 134.376 192.399 133.968 191.989C133.559 191.58 133.491 191.989 133.695 193.286Z" fill="black"/>
<path d="M183.184 196.29C180.937 197.723 177.466 199.43 175.56 200.044C171.543 201.205 170.659 202.024 174.198 201.341C176.581 200.795 183.728 197.041 186.315 194.925C188.834 192.808 187.677 193.286 183.184 196.29Z" fill="black"/>
<path d="M194.416 197.041C194.416 197.997 197.07 203.799 197.138 202.98C197.138 201.751 195.232 196.904 194.756 196.904C194.552 196.904 194.416 196.973 194.416 197.041Z" fill="black"/>
<path d="M142.34 198.338C142.068 198.747 142 199.157 142.204 199.362C142.34 199.567 142.681 199.225 142.885 198.611C143.361 197.45 142.953 197.246 142.34 198.338Z" fill="black"/>
<path d="M174.607 198.543C174.47 198.679 172.973 199.02 171.271 199.293C167.459 199.84 166.846 200.317 169.978 200.317C172.088 200.249 177.329 198.474 175.628 198.338C175.219 198.269 174.743 198.406 174.607 198.543Z" fill="black"/>
<path d="M143.361 201.342C143.361 201.888 143.497 202.365 143.634 202.365C143.77 202.365 144.042 201.888 144.314 201.342C144.519 200.795 144.382 200.318 144.042 200.318C143.634 200.318 143.361 200.795 143.361 201.342Z" fill="black"/>
<path d="M121.987 201.751C122.191 202.092 124.369 202.365 126.82 202.365C129.338 202.365 131.176 202.229 131.04 202.092C130.428 201.546 121.646 201.205 121.987 201.751Z" fill="black"/>
<path d="M144.383 203.048C144.178 203.389 144.246 203.731 144.655 203.731C144.995 203.731 145.54 203.389 145.744 203.048C145.948 202.638 145.88 202.365 145.472 202.365C145.131 202.365 144.587 202.638 144.383 203.048Z" fill="black"/>
<path d="M145.744 205.574C145.54 206.256 145.676 206.871 146.016 207.007C146.425 207.144 146.765 207.622 146.765 208.168C146.765 208.646 147.241 209.396 147.786 209.874C148.331 210.352 148.807 210.489 148.807 210.147C148.807 209.806 149.011 208.85 149.216 207.963C149.556 206.734 149.352 206.461 148.126 206.461C147.037 206.461 146.765 206.188 147.037 205.437C147.241 204.891 147.105 204.413 146.833 204.413C146.493 204.413 146.016 204.959 145.744 205.574Z" fill="black"/>
<path d="M159.154 216.701C159.154 217.998 159.29 218.544 159.495 217.861C159.631 217.247 159.631 216.155 159.495 215.472C159.29 214.858 159.154 215.404 159.154 216.701Z" fill="black"/>
<path d="M193.939 219.363C190.263 221.752 188.221 223.527 189.242 223.527C189.447 223.527 191.216 222.298 193.19 220.797C195.165 219.295 197.139 218.066 197.615 218.066C198.024 218.066 198.636 217.725 198.84 217.383C199.657 216.086 197.956 216.701 193.939 219.363Z" fill="black"/>
<path d="M182.231 230.08C182.231 230.831 182.435 231.036 182.639 230.49C182.843 230.012 182.775 229.398 182.571 229.193C182.367 228.92 182.163 229.329 182.231 230.08Z" fill="black"/>
<path d="M182.98 243.392C182.843 251.788 182.98 252.88 184.205 254.314C184.886 255.201 185.498 255.611 185.566 255.27C185.566 254.86 185.158 254.109 184.749 253.7C184.137 253.085 183.728 249.604 183.456 243.46L183.116 234.108L182.98 243.392Z" fill="black"/>
<path d="M191.488 284.35C190.808 284.759 189.787 284.896 189.242 284.691C188.697 284.486 188.289 284.623 188.289 284.964C188.289 285.92 190.399 285.783 192.373 284.623C193.326 284.077 193.803 283.667 193.394 283.667C193.054 283.667 192.169 283.94 191.488 284.35Z" fill="black"/>
<path d="M197.819 292.542C197.819 293.156 201.087 294.18 201.563 293.702C201.699 293.565 200.951 293.088 199.862 292.678C198.704 292.268 197.819 292.2 197.819 292.542Z" fill="black"/>
<path d="M149.896 307.355C149.692 307.696 149.216 309.949 148.739 312.474C148.058 315.956 148.058 318.072 148.671 321.28C149.079 323.67 149.896 332.476 150.509 340.94C152.551 368.997 155.887 395.892 158.337 404.016C159.018 406.337 159.018 406.814 157.793 407.975C156.567 409.204 156.499 409.682 157.248 412.89C157.725 414.87 157.861 417.122 157.589 417.941C157.248 418.829 157.384 419.58 157.861 420.058C159.086 421.013 164.26 422.106 165.825 421.696C166.778 421.423 167.391 421.764 167.799 422.925L168.48 424.563V422.993C168.548 422.106 168.957 421.491 169.637 421.491C170.318 421.491 170.59 421.901 170.318 422.515C170.114 423.061 170.25 423.539 170.59 423.539C170.999 423.539 171.271 422.993 171.271 422.379C171.271 421.764 171.475 421.423 171.679 421.696C171.884 421.901 172.837 421.832 173.722 421.491C174.947 421.013 175.492 421.15 176.24 422.174C176.785 422.925 177.329 423.334 177.602 423.129C177.806 422.925 178.623 423.129 179.44 423.539C180.257 423.949 181.073 424.153 181.278 424.017C181.414 423.812 180.529 423.129 179.167 422.515C177.534 421.764 176.717 420.877 176.717 419.989C176.717 418.965 176.989 418.761 177.942 419.102C180.733 420.262 181.005 420.194 179.167 418.897C177.329 417.6 175.083 412.958 175.764 411.866C175.9 411.593 177.602 412.822 179.508 414.665C181.414 416.508 183.864 418.214 185.022 418.419C189.378 419.375 199.998 417.122 201.836 414.801C202.652 413.777 202.72 413.982 202.312 416.371C202.108 417.873 201.904 419.921 201.904 420.877C201.904 422.106 201.359 422.788 200.066 423.334L198.16 424.085L199.998 424.153C201.223 424.222 202.108 423.744 202.584 422.925C203.537 421.082 203.469 413.777 202.448 412.753C201.904 412.207 201.699 409.545 201.836 404.63C201.904 400.603 201.836 397.394 201.699 397.599C201.495 397.804 201.223 401.763 201.019 406.405C200.814 412.48 200.474 415.006 199.793 415.416C197.683 416.713 197.411 416.235 196.798 410.637C196.594 408.589 196.254 406.746 196.049 406.541C195.845 406.337 195.845 408.453 196.117 411.388L196.594 416.576L191.42 417.054C183.796 417.805 183.184 417.532 182.231 412.822C181.754 410.637 181.142 407.156 180.801 405.108C180.325 401.558 180.257 401.49 180.189 404.152C180.189 405.722 180.461 408.589 180.801 410.569C181.21 412.549 181.346 414.323 181.21 414.46C180.597 415.074 178.827 413.709 178.214 412.071C177.261 409.545 175.015 398.35 172.564 383.741C171.679 378.553 170.931 377.461 171.611 382.376C172.224 386.882 175.9 407.156 176.445 408.999C176.853 410.501 176.717 410.569 171.679 410.569H166.506L166.846 407.702L167.119 404.767L166.37 407.702C165.689 410.432 165.485 410.569 163.17 410.569H160.72L159.154 404.22C157.725 398.35 155.546 385.789 154.253 375.755C153.504 369.611 152.347 355.822 151.462 341.964C151.122 335.547 150.305 327.219 149.76 323.328C148.807 316.57 149.011 311.928 150.509 307.969C150.985 306.809 150.509 306.331 149.896 307.355ZM159.903 411.32C163.034 411.525 166.098 411.661 169.978 411.798C173.994 411.934 174.607 412.139 175.015 413.436C175.9 416.03 176.036 419.375 175.287 419.853C173.994 420.604 162.081 420.945 160.243 420.194C158.678 419.58 158.405 419.17 158.542 417.395C158.678 416.303 159.018 415.143 159.222 414.938C159.426 414.665 159.222 414.05 158.678 413.504C157.589 412.48 157.316 409.135 158.201 408.248C158.473 407.975 158.746 408.521 158.882 409.477C159.018 410.432 159.495 411.252 159.903 411.32Z" fill="black"/>
<path d="M203.197 351.316C203.197 353.705 203.061 357.119 202.925 359.03C202.72 360.873 202.516 367.631 202.312 374.048C202.108 380.396 201.631 386.882 201.291 388.383C200.338 392.001 200.338 397.121 201.223 396.575C201.631 396.302 201.767 395.141 201.495 393.913C201.291 392.684 201.563 389.68 202.108 387.291C203.197 382.922 204.558 347.084 203.673 347.084C203.469 347.084 203.265 348.995 203.197 351.316Z" fill="black"/>
<path d="M226.438 163.773L388 139.662V139.662C388 131.667 380.539 125.765 372.759 127.606L227.467 161.984C226.672 162.172 226.201 162.992 226.438 163.773V163.773Z" fill="#9400D3" fill-opacity="0.91"/>
<path d="M388 139.662L226.438 163.773V165.422L388 159.136V139.662Z" fill="#4B0082" fill-opacity="0.91"/>
<path d="M388 159.136L226.438 165.422V166.452L388 172.635V159.136Z" fill="#0000FF" fill-opacity="0.91"/>
<path d="M388 172.635L226.438 166.452V167.071L388 189.533V172.635Z" fill="#00FF00" fill-opacity="0.91"/>
<path d="M388 189.533L226.438 167.071V167.895L388 205.401V189.533Z" fill="#FFFF00" fill-opacity="0.91"/>
<path d="M388 205.401L226.438 167.895V168.822L388 223.33V205.401Z" fill="#FF7F00" fill-opacity="0.91"/>
<path d="M388 223.33L226.438 168.822V168.822C226.438 169.573 226.883 170.252 227.572 170.552L372.409 233.55C379.77 236.752 388 231.357 388 223.33V223.33Z" fill="#FF0000" fill-opacity="0.91"/>
<path d="M81.4219 294.953C79.1302 294.953 77.4896 295.266 76.5 295.891C75.5365 296.49 75.0547 297.648 75.0547 299.367V323.508H82.8672C83.9349 323.508 84.8333 323.404 85.5625 323.195C86.2917 322.987 86.8646 322.557 87.2812 321.906C87.6979 321.229 87.9844 320.292 88.1406 319.094C88.3229 317.896 88.4141 316.307 88.4141 314.328H102.086V338H45.6016V323.508C47.8932 323.508 49.5339 323.208 50.5234 322.609C51.513 321.984 52.0078 320.826 52.0078 319.133V299.367C52.0078 297.648 51.513 296.49 50.5234 295.891C49.5339 295.266 47.8932 294.953 45.6016 294.953V280.461H81.4219V294.953ZM105.289 316.398C105.289 312.57 105.953 309.211 107.281 306.32C108.609 303.43 110.497 301.021 112.945 299.094C115.419 297.141 118.388 295.669 121.852 294.68C125.315 293.69 129.182 293.195 133.453 293.195C137.724 293.195 141.591 293.69 145.055 294.68C148.518 295.669 151.474 297.141 153.922 299.094C156.37 301.021 158.258 303.43 159.586 306.32C160.94 309.211 161.617 312.57 161.617 316.398C161.617 320.174 160.94 323.521 159.586 326.438C158.258 329.354 156.37 331.802 153.922 333.781C151.474 335.734 148.518 337.206 145.055 338.195C141.591 339.185 137.724 339.68 133.453 339.68C129.182 339.68 125.315 339.185 121.852 338.195C118.388 337.206 115.419 335.734 112.945 333.781C110.497 331.802 108.609 329.354 107.281 326.438C105.953 323.521 105.289 320.174 105.289 316.398ZM127.516 316.398C127.516 318.586 127.607 320.448 127.789 321.984C127.997 323.495 128.323 324.719 128.766 325.656C129.208 326.568 129.807 327.245 130.562 327.688C131.318 328.104 132.281 328.312 133.453 328.312C134.625 328.312 135.576 328.104 136.305 327.688C137.06 327.245 137.659 326.568 138.102 325.656C138.57 324.719 138.896 323.495 139.078 321.984C139.26 320.448 139.352 318.586 139.352 316.398C139.352 312.023 138.935 308.964 138.102 307.219C137.294 305.448 135.745 304.562 133.453 304.562C132.281 304.562 131.318 304.771 130.562 305.188C129.807 305.578 129.208 306.242 128.766 307.18C128.323 308.091 127.997 309.315 127.789 310.852C127.607 312.362 127.516 314.211 127.516 316.398ZM164.82 316.398C164.82 312.57 165.484 309.211 166.812 306.32C168.141 303.43 170.029 301.021 172.477 299.094C174.951 297.141 177.919 295.669 181.383 294.68C184.846 293.69 188.714 293.195 192.984 293.195C197.255 293.195 201.122 293.69 204.586 294.68C208.049 295.669 211.005 297.141 213.453 299.094C215.901 301.021 217.789 303.43 219.117 306.32C220.471 309.211 221.148 312.57 221.148 316.398C221.148 320.174 220.471 323.521 219.117 326.438C217.789 329.354 215.901 331.802 213.453 333.781C211.005 335.734 208.049 337.206 204.586 338.195C201.122 339.185 197.255 339.68 192.984 339.68C188.714 339.68 184.846 339.185 181.383 338.195C177.919 337.206 174.951 335.734 172.477 333.781C170.029 331.802 168.141 329.354 166.812 326.438C165.484 323.521 164.82 320.174 164.82 316.398ZM187.047 316.398C187.047 318.586 187.138 320.448 187.32 321.984C187.529 323.495 187.854 324.719 188.297 325.656C188.74 326.568 189.339 327.245 190.094 327.688C190.849 328.104 191.812 328.312 192.984 328.312C194.156 328.312 195.107 328.104 195.836 327.688C196.591 327.245 197.19 326.568 197.633 325.656C198.102 324.719 198.427 323.495 198.609 321.984C198.792 320.448 198.883 318.586 198.883 316.398C198.883 312.023 198.466 308.964 197.633 307.219C196.826 305.448 195.276 304.562 192.984 304.562C191.812 304.562 190.849 304.771 190.094 305.188C189.339 305.578 188.74 306.242 188.297 307.18C187.854 308.091 187.529 309.315 187.32 310.852C187.138 312.362 187.047 314.211 187.047 316.398ZM282.594 319.68C282.594 321.06 282.828 322.049 283.297 322.648C283.792 323.221 284.729 323.508 286.109 323.508H287.398V338H261.148V313.039C261.148 312.023 261.044 311.216 260.836 310.617C260.628 309.992 260.341 309.523 259.977 309.211C259.638 308.872 259.234 308.651 258.766 308.547C258.323 308.443 257.893 308.391 257.477 308.391C255.758 308.391 254.573 308.885 253.922 309.875C253.297 310.865 252.984 312.271 252.984 314.094V319.68C252.984 321.06 253.219 322.049 253.688 322.648C254.182 323.221 255.12 323.508 256.5 323.508H257.789V338H225.953V323.508H228.258C229.326 323.508 230.133 323.169 230.68 322.492C231.253 321.789 231.539 320.956 231.539 319.992V312.57C231.539 311.346 231.174 310.526 230.445 310.109C229.742 309.667 228.935 309.445 228.023 309.445H225.953V294.953H249.156L248.336 305.695H249C249.573 301.685 251.188 298.599 253.844 296.438C256.526 294.276 260.406 293.195 265.484 293.195C267.385 293.195 269.156 293.456 270.797 293.977C272.464 294.471 273.935 295.24 275.211 296.281C276.513 297.323 277.529 298.638 278.258 300.227C279.013 301.789 279.443 303.612 279.547 305.695H280.094C280.328 303.716 280.901 301.945 281.812 300.383C282.75 298.794 283.922 297.479 285.328 296.438C286.76 295.396 288.323 294.602 290.016 294.055C291.734 293.482 293.531 293.195 295.406 293.195C298.87 293.195 301.695 293.703 303.883 294.719C306.07 295.734 307.776 297.023 309 298.586C310.224 300.122 311.057 301.802 311.5 303.625C311.969 305.422 312.203 307.115 312.203 308.703V319.68C312.203 321.06 312.438 322.049 312.906 322.648C313.401 323.221 314.339 323.508 315.719 323.508H317.789V338H290.758V313.039C290.758 312.023 290.641 311.216 290.406 310.617C290.198 309.992 289.924 309.523 289.586 309.211C289.247 308.872 288.844 308.651 288.375 308.547C287.932 308.443 287.503 308.391 287.086 308.391C285.367 308.391 284.182 308.885 283.531 309.875C282.906 310.865 282.594 312.271 282.594 314.094V319.68Z" fill="#FFD116"/>
<g filter="url(#filter0_d_572_3)">
<path d="M80.36 248.52V259.08H69.08V291H55.76V259.08H44.6V248.52H80.36ZM107.673 256.92C111.553 256.92 114.573 258.22 116.733 260.82C118.933 263.42 120.033 266.94 120.033 271.38V291H106.773V273.06C106.773 271.46 106.333 270.2 105.453 269.28C104.613 268.32 103.473 267.84 102.033 267.84C100.553 267.84 99.3927 268.32 98.5527 269.28C97.7127 270.2 97.2927 271.46 97.2927 273.06V291H83.9727V246.6H97.2927V262.32C98.3327 260.72 99.7127 259.42 101.433 258.42C103.193 257.42 105.273 256.92 107.673 256.92ZM141.889 291.42C138.489 291.42 135.429 290.72 132.709 289.32C129.989 287.92 127.849 285.92 126.289 283.32C124.769 280.68 124.009 277.6 124.009 274.08C124.009 270.56 124.769 267.5 126.289 264.9C127.849 262.26 129.989 260.24 132.709 258.84C135.429 257.44 138.489 256.74 141.889 256.74C145.289 256.74 148.349 257.44 151.069 258.84C153.789 260.24 155.909 262.26 157.429 264.9C158.989 267.5 159.769 270.56 159.769 274.08C159.769 277.6 158.989 280.68 157.429 283.32C155.909 285.92 153.789 287.92 151.069 289.32C148.349 290.72 145.289 291.42 141.889 291.42ZM141.889 279.9C143.129 279.9 144.169 279.42 145.009 278.46C145.849 277.46 146.269 276 146.269 274.08C146.269 272.16 145.849 270.72 145.009 269.76C144.169 268.76 143.129 268.26 141.889 268.26C140.649 268.26 139.609 268.76 138.769 269.76C137.929 270.72 137.509 272.16 137.509 274.08C137.509 276 137.909 277.46 138.709 278.46C139.549 279.42 140.609 279.9 141.889 279.9ZM199.773 257.16V291H186.453V285.84C185.413 287.44 184.013 288.74 182.253 289.74C180.533 290.74 178.473 291.24 176.073 291.24C172.193 291.24 169.153 289.94 166.953 287.34C164.793 284.74 163.713 281.22 163.713 276.78V257.16H176.973V275.1C176.973 276.7 177.393 277.98 178.233 278.94C179.113 279.86 180.273 280.32 181.713 280.32C183.193 280.32 184.353 279.86 185.193 278.94C186.033 277.98 186.453 276.7 186.453 275.1V257.16H199.773ZM217.969 256.74C220.169 256.74 222.069 257.2 223.669 258.12C225.269 259 226.489 260.22 227.329 261.78V257.16H240.589V290.4C240.589 293.56 240.009 296.44 238.849 299.04C237.689 301.64 235.809 303.72 233.209 305.28C230.649 306.84 227.349 307.62 223.309 307.62C217.869 307.62 213.549 306.34 210.349 303.78C207.189 301.26 205.389 297.82 204.949 293.46H218.029C218.389 295.22 219.829 296.1 222.349 296.1C223.909 296.1 225.129 295.7 226.009 294.9C226.889 294.1 227.329 292.6 227.329 290.4V286.38C226.489 287.94 225.269 289.18 223.669 290.1C222.069 290.98 220.169 291.42 217.969 291.42C215.329 291.42 212.949 290.74 210.829 289.38C208.709 287.98 207.029 285.98 205.789 283.38C204.589 280.74 203.989 277.64 203.989 274.08C203.989 270.52 204.589 267.44 205.789 264.84C207.029 262.2 208.709 260.2 210.829 258.84C212.949 257.44 215.329 256.74 217.969 256.74ZM227.329 274.08C227.329 272.28 226.869 270.88 225.949 269.88C225.029 268.88 223.849 268.38 222.409 268.38C220.969 268.38 219.789 268.88 218.869 269.88C217.949 270.88 217.489 272.28 217.489 274.08C217.489 275.88 217.949 277.28 218.869 278.28C219.789 279.28 220.969 279.78 222.409 279.78C223.849 279.78 225.029 279.28 225.949 278.28C226.869 277.28 227.329 275.88 227.329 274.08ZM270.27 256.92C274.15 256.92 277.17 258.22 279.33 260.82C281.53 263.42 282.63 266.94 282.63 271.38V291H269.37V273.06C269.37 271.46 268.93 270.2 268.05 269.28C267.21 268.32 266.07 267.84 264.63 267.84C263.15 267.84 261.99 268.32 261.15 269.28C260.31 270.2 259.89 271.46 259.89 273.06V291H246.57V246.6H259.89V262.32C260.93 260.72 262.31 259.42 264.03 258.42C265.79 257.42 267.87 256.92 270.27 256.92ZM309.466 279.66V291H304.426C295.146 291 290.506 286.38 290.506 277.14V268.26H286.306V257.16H290.506V249H303.826V257.16H309.346V268.26H303.826V277.38C303.826 278.18 304.006 278.76 304.366 279.12C304.766 279.48 305.406 279.66 306.286 279.66H309.466Z" fill="white"/>
</g>
</g>
<path d="M164 149.134C164 150.628 162.482 151.641 161.102 151.069L-134.791 28.2819L-174.954 11.3599C-178.055 10.0535 -179.145 6.20969 -177.192 3.46976V3.46976C-175.751 1.44738 -173.09 0.710678 -170.814 1.7037L162.743 147.214C163.506 147.547 164 148.301 164 149.134V149.134Z" fill="white"/>
<defs>
<filter id="filter0_d_572_3" x="43.0001" y="246.6" width="268.066" height="64.22" filterUnits="userSpaceOnUse" color-interpolation-filters="sRGB">
<feFlood flood-opacity="0" result="BackgroundImageFix"/>
<feColorMatrix in="SourceAlpha" type="matrix" values="0 0 0 0 0 0 0 0 0 0 0 0 0 0 0 0 0 0 127 0" result="hardAlpha"/>
<feOffset dy="1.6"/>
<feGaussianBlur stdDeviation="0.8"/>
<feComposite in2="hardAlpha" operator="out"/>
<feColorMatrix type="matrix" values="0 0 0 0 0 0 0 0 0 0 0 0 0 0 0 0 0 0 0.25 0"/>
<feBlend mode="normal" in2="BackgroundImageFix" result="effect1_dropShadow_572_3"/>
<feBlend mode="normal" in="SourceGraphic" in2="effect1_dropShadow_572_3" result="shape"/>
</filter>
<clipPath id="clip0_572_3">
<rect width="339" height="342" fill="white" transform="translate(29 87)"/>
</clipPath>
</defs>
</svg>
