<svg width="293" height="131" viewBox="0 0 293 131" fill="none" xmlns="http://www.w3.org/2000/svg">
<path ref={whitepathRef} className="logopathtext1" d="M79.4501 115.2C79.4501 115.2 76.4501 110.2 80.9501 105.2C86.0302 97.7749 78.6187 110.074 67.5 114.13M79.4501 115.2C85 121.99 101.5 122.49 110.5 117.99C120.373 112.729 122.623 110.397 125.5 107.49C131 98.99 132.95 87.1998 124.95 85.6997C124.95 85.6997 111.95 84.1997 112.95 91.6997M79.4501 115.2C77.9862 110.674 75.6607 110.06 67.5 114.13M112.95 91.6997C112.95 91.6997 113.923 98.9968 118.748 93.9172C118.813 93.8484 118.755 93.7315 118.661 93.7456C112.95 94.6026 112.95 91.6997 112.95 91.6997ZM5 116.99L3 115.99L11.5 122.49L5 117.99M67.5 114.13C64.3923 115.264 60.9951 115.754 57.5 114.99C52.5425 114.06 40.8457 106.299 31 101.72M31 101.72C24.9575 98.9098 19.3297 97.5 16.9501 99.1997C14 103 25.1809 100.157 31 101.72Z" stroke="#555555" stroke-width="3"/>
<path className="logopathtext2" d="M113.95 93.6998L117.45 94.6998H114.95L114.45 94.1998" stroke="#555555"/>
<path className="logopathtext3" d="M16.5 124.49C8.45244 122.813 3.02914 117.542 0.519963 112.99M16.5 124.49C18 125.5 8.07779 121 7.31453 113.5M16.5 124.49C10.9576 120.005 6.72418 118.355 9.5 107.49C10.0855 104.592 9.11285 107.644 7.31453 113.5M87.97 44.2001C87.97 44.2001 73.5 37.4898 61.97 58.7001C59 64.4897 59.9701 79.2 34.97 80.2C34.97 80.2 2.97011 81.7 -0.529949 94.2C-0.529949 94.2 -4.45388 103.966 0.519963 112.99M87.97 44.2001C97.3214 49.1253 100.959 53.2121 101.595 56.4897M87.97 44.2001C91.0943 45.3234 93.3305 45.5569 95 45.0367M90.97 66.7C82 68.4897 83.2988 58.7865 84.97 61.2001C86.6413 63.6137 84.9979 65.9875 90.97 66.7ZM90.97 66.7C90.97 66.7 102.931 63.3868 101.595 56.4897M0.519963 112.99C1.53934 114.011 2.54176 114.895 3.47795 115.49C4.73869 116.291 6.15533 115.302 7.31453 113.5M101.595 56.4897C117.745 78.8758 126.442 80.9037 141.5 70.9896C163.5 54.99 141.5 41.4897 141.5 41.4897C141.5 41.4897 139.64 39.8952 136.5 39.2249M101.595 56.4897C100.258 50.7309 99.8052 45.5527 99.9882 40.9177M195.5 28.9897C195.5 28.9897 190.5 5.99021 162.5 2.98967C134.5 -0.0108822 127 4.48888 119.5 7.49C117.642 8.23335 104.265 15.9919 100.779 34M195.5 28.9897L196.8 46.3267C196.81 46.4548 197.187 46.4575 197.203 46.33C197.547 43.5632 198.48 39.0865 201 35.1006M195.5 28.9897C195.5 28.9897 197.5 38.49 204.5 30.9897M204.5 30.9897C221.5 17.49 239.092 35.2979 241.5 37.5C242.791 38.6807 245.719 41.2808 245.69 46.5M204.5 30.9897C203.082 32.2185 201.932 33.626 201 35.1006M256.5 56.4897C243 58.9895 227.5 76.5 236 66.7C243.426 57.4892 245.664 51.0147 245.69 46.5M256.5 56.4897C270 53.9899 279 61.4793 286 70.9896C293 80.5 292.886 92.4372 288 99.9899C279.423 111.271 264.745 103.959 259.5 96.4899C258.255 94.7172 268.5 95.4899 266.5 91.4899C264 89.4899 260.336 90.5102 259 92.9896C257.612 96.6954 259.542 99.266 261 103.49C264 112.99 259 114.99 259 114.99C242.457 125.692 239.404 123.567 231.5 122.99C216.275 121.333 209.756 115.419 209.5 104.439M256.5 56.4897C252.567 57.4169 250.082 57.3072 248.5 56.2089M209.5 104.439C210.047 99.4739 221 98.0507 222.5 106.5M209.5 104.439C211.5 97.4392 220 98.4896 220 98.4896M209.5 104.439C202.744 128.782 186.065 130.835 178.5 124.308M222.5 106.5C223.5 107.51 225.791 99.5616 220 98.4896M222.5 106.5L220 98.4896M169.5 126.99C169.5 126.99 165 129 162 129.5C161.783 129.539 166.095 128.124 169.5 126.99ZM169.5 126.99C170.447 126.608 171.264 126.071 172 125.386M132.5 38.9897C128.173 39.3828 126.941 43.49 127.586 45.224C127.761 45.694 128.5 47.49 129 47.49C128.385 49.357 131.473 37.9887 136.5 39.2249M132.5 38.9897C133.99 38.8543 135.333 38.9758 136.5 39.2249M132.5 38.9897L128 44.5M196.5 32.49L197 33.99L199.5 34.49L201 35.1006M200.5 34.49L201 33.99L198.5 38.49L197 43.49L196.5 33.49L199.5 35.49L198 37.99L197.5 40.99L197 34.49L198.5 35.99V36.49L197.5 35.99L198 37.49M265.5 91.9899C265 91.9899 261 94 260 94M172 125.386C174.495 123.059 177.046 114.526 179.5 109C186.271 100.998 186 107 180.492 111.5C175.913 118.024 176.5 118.024 176.5 118.024C176.5 119.44 177.189 123.57 178.5 124.308M172 125.386C172.369 125.015 175.887 124.574 178 124.357M178.5 124.308C178.345 124.323 178.177 124.339 178 124.357M178.5 124.308L178 124.357M175 125.386C175.4 124.523 176.167 121.769 176.5 120.5M245.69 46.5C245.78 48.8975 245.942 50.9019 246.326 52.5M248 55.8012L242.5 61L246.326 52.5M248 55.8012C247.192 55.0317 246.67 53.9282 246.326 52.5M248 55.8012C248.156 55.9495 248.322 56.0855 248.5 56.2089M248.5 56.2089L241 62.5M100.779 34C99.4064 39.9599 98.3312 43.9988 95 45.0367M100.779 34C100.361 36.157 100.085 38.461 99.9882 40.9177M95 45.0367L96.5 47.0855M99.9882 40.9177L99.7745 42.99M96.5 47.0855L99 50.5L99.7745 42.99M96.5 47.0855L99.7745 42.99" stroke="#555555" stroke-width="3"/>
<path className="logopathtext1" d="M84.5 61.4896L87 65.9896L84.5 63.4896V62.9896V61.9896L85.5 65.4896" stroke="#555555"/>
<path className="logopathtext2" d="M15 123.99L9 120.49L5 117.49L3.5 115.49L7 116.99M12.5 121.49L13.5 122.49L7.5 118.49L5 116.49L8.5 117.49L8 116.49M11 120.49L7 117.49L8.5 117.99H9" stroke="#555555"/>
<path className="logopathtext3" d="M196 31.4899L197 32.9899" stroke="#555555"/>
<path className="logopathtext1" d="M197.5 42.4899L197 44.4899" stroke="#555555"/>
<path className="logopathtext2" d="M5.5 116.49L8 115.49L9 112.49" stroke="#555555"/>
</svg>
